<svg width="1440" height="812" viewBox="0 0 1440 812" fill="none" xmlns="http://www.w3.org/2000/svg">
<g clip-path="url(#clip0_2110_17252)">
<rect width="1440" height="812" fill="#006981"/>
<rect width="1440" height="812" fill="#006981" fill-opacity="0.95"/>
<rect width="1440" height="812" fill="url(#paint0_linear_2110_17252)"/>
<rect width="1440" height="812" fill="url(#paint1_linear_2110_17252)" fill-opacity="0.2"/>
<rect x="80" y="377" width="44" height="44" rx="22" fill="white"/>
<path fill-rule="evenodd" clip-rule="evenodd" d="M102 412C104.408 412 111.63 403.333 111.63 395.63C111.63 390.311 107.319 386 102 386C96.6819 386 92.3706 390.311 92.3706 395.63C92.3706 403.333 99.5928 412 102 412ZM102 399.481C104.128 399.481 105.852 397.756 105.852 395.629C105.852 393.502 104.128 391.777 102 391.777C99.8729 391.777 98.1483 393.502 98.1483 395.629C98.1483 397.756 99.8729 399.481 102 399.481Z" fill="#238386"/>
<path d="M148.254 387.59V386.477H150.645V385.551H144.727V386.477H147.129V387.59C147.117 389.4 145.945 391.369 144.363 392.113L145.008 392.992C146.232 392.395 147.217 391.117 147.703 389.617C148.189 391.018 149.174 392.178 150.41 392.723L151.02 391.855C149.402 391.164 148.248 389.348 148.254 387.59ZM151.969 394.996H153.082V384.496H151.969V394.996ZM163.266 389.336H157.066V386.207H163.172V385.305H155.953V390.227H158.988V392.793H154.758V393.707H164.367V392.793H160.09V390.227H163.266V389.336ZM174.727 389.312H165.117V390.168H174.727V389.312ZM166.254 391.703H172.441V392.477H166.266V394.867H173.871V394.082H167.379V393.215H173.543V390.906H166.254V391.703ZM166.324 385.551H172.406V386.301H166.348V388.621H173.695V387.836H167.449V387.039H173.52V384.766H166.324V385.551ZM188.004 390.016H183.762V389.102H186.902V388.234H180.785V387.344H186.562V386.512H180.785V385.656H186.832V384.777H179.66V389.102H182.648V390.016H178.406V390.895H188.004V390.016ZM179.566 393.285C179.566 394.393 180.873 394.979 183.211 394.973C185.514 394.979 186.826 394.393 186.832 393.285C186.826 392.184 185.514 391.58 183.211 391.586C180.873 391.58 179.566 392.184 179.566 393.285ZM180.68 393.285C180.674 392.717 181.553 392.418 183.211 392.418C184.846 392.418 185.719 392.717 185.719 393.285C185.719 393.854 184.846 394.141 183.211 394.129C181.553 394.141 180.674 393.854 180.68 393.285ZM193.992 386.23H191.941V384.801H190.84V386.23H188.777V387.133H193.992V386.23ZM189.117 390.18C189.111 391.615 190.072 392.623 191.391 392.617C192.721 392.623 193.67 391.615 193.676 390.18C193.67 388.768 192.721 387.766 191.391 387.766C190.072 387.766 189.111 388.768 189.117 390.18ZM190.102 390.18C190.096 389.307 190.635 388.697 191.391 388.691C192.146 388.697 192.691 389.307 192.691 390.18C192.691 391.07 192.146 391.668 191.391 391.668C190.635 391.668 190.096 391.07 190.102 390.18ZM194.473 394.504H195.527V389.781H196.734V394.996H197.789V384.496H196.734V388.867H195.527V384.73H194.473V394.504ZM210.855 384.508H209.742V387.344H207.738V388.246H209.742V392.195H210.855V384.508ZM202.113 390.004L202.688 390.906C203.936 390.461 204.855 389.535 205.312 388.375C205.77 389.418 206.643 390.262 207.82 390.672L208.395 389.781C206.807 389.254 205.857 387.936 205.863 386.629V386.219H208.113V385.305H202.453V386.219H204.727V386.629C204.732 388.076 203.725 389.459 202.113 390.004ZM204.035 394.773H211.137V393.871H205.148V391.504H204.035V394.773ZM220.863 384.988H213.68V385.891H219.762C219.762 386.641 219.75 387.514 219.504 388.691H212.473V389.594H216.703V391.387H213.457V392.277H219.797V394.996H220.91V391.387H217.816V389.594H222.082V388.691H220.623C220.869 387.473 220.869 386.547 220.863 385.773V384.988ZM231.879 384.496H230.812V394.996H231.879V384.496ZM222.961 389.031C222.961 391.311 223.852 392.74 225.223 392.734C226.523 392.74 227.396 391.469 227.496 389.418H228.68V394.48H229.746V384.695H228.68V388.516H227.49C227.361 386.547 226.5 385.334 225.223 385.34C223.852 385.334 222.961 386.758 222.961 389.031ZM223.992 389.031C223.992 387.355 224.467 386.377 225.223 386.383C225.996 386.377 226.477 387.355 226.477 389.031C226.477 390.701 225.996 391.686 225.223 391.68C224.467 391.686 223.992 390.701 223.992 389.031ZM239.789 391.434V390.93H238.711V391.434C238.705 392.447 237.973 393.543 236.625 394.023L237.188 394.844C238.178 394.48 238.869 393.783 239.25 392.957C239.572 393.812 240.211 394.557 241.219 394.938C242.18 394.539 242.807 393.771 243.141 392.928C243.504 393.783 244.213 394.486 245.25 394.844L245.801 394.023C244.43 393.578 243.709 392.523 243.715 391.434V390.93H242.625V391.434C242.625 392.242 242.15 393.244 241.189 393.859C240.234 393.291 239.789 392.336 239.789 391.434ZM236.355 387.566C236.361 389.02 237.545 390.027 239.156 390.027C240.762 390.027 241.945 389.02 241.945 387.566C241.945 386.096 240.762 385.088 239.156 385.082C237.545 385.088 236.361 386.096 236.355 387.566ZM237.445 387.566C237.439 386.646 238.16 386.025 239.156 386.031C240.141 386.025 240.855 386.646 240.855 387.566C240.855 388.48 240.141 389.102 239.156 389.102C238.16 389.102 237.439 388.48 237.445 387.566ZM243.738 390.484H244.852V384.508H243.738V390.484ZM255.012 387.566H248.883V384.871H247.781V388.457H255.012V387.566ZM246.504 390.672H256.113V389.781H246.504V390.672ZM247.699 394.75H255.082V393.836H248.812V391.668H247.699V394.75ZM208.605 407.312H198.996V408.168H208.605V407.312ZM200.133 409.703H206.32V410.477H200.145V412.867H207.75V412.082H201.258V411.215H207.422V408.906H200.133V409.703ZM200.203 403.551H206.285V404.301H200.227V406.621H207.574V405.836H201.328V405.039H207.398V402.766H200.203V403.551ZM220.57 402.508H219.457V409.574H220.57V406.539H222.07V405.625H220.57V402.508ZM212.238 408.402L212.355 409.293C214.207 409.293 216.697 409.275 218.953 408.883L218.859 408.086C217.98 408.215 217.031 408.291 216.094 408.338V407.67C217.277 407.529 218.021 406.967 218.027 406.129C218.021 405.168 217.037 404.57 215.531 404.582C214.025 404.57 213.023 405.168 213.035 406.129C213.023 406.973 213.785 407.535 214.98 407.67V408.379C213.996 408.402 213.053 408.402 212.238 408.402ZM212.508 404.23H218.566V403.398H216.094V402.414H214.98V403.398H212.508V404.23ZM213.551 410.934H219.457V412.996H220.57V410.066H213.551V410.934ZM214.09 406.129C214.09 405.625 214.635 405.332 215.531 405.344C216.416 405.332 216.967 405.625 216.961 406.129C216.967 406.621 216.416 406.943 215.531 406.938C214.635 406.943 214.09 406.621 214.09 406.129ZM231.387 402.508H230.273V410.137H231.387V402.508ZM222.891 405.812C222.896 407.354 224.104 408.426 225.691 408.426C227.273 408.426 228.48 407.354 228.48 405.812C228.48 404.295 227.273 403.217 225.691 403.211C224.104 403.217 222.896 404.295 222.891 405.812ZM223.98 405.812C223.975 404.846 224.713 404.184 225.691 404.184C226.652 404.184 227.391 404.846 227.391 405.812C227.391 406.803 226.652 407.453 225.691 407.453C224.713 407.453 223.975 406.803 223.98 405.812ZM224.52 412.773H231.703V411.871H225.645V409.363H224.52V412.773ZM238.242 404.23H236.191V402.801H235.09V404.23H233.027V405.133H238.242V404.23ZM233.367 408.18C233.361 409.615 234.322 410.623 235.641 410.617C236.971 410.623 237.92 409.615 237.926 408.18C237.92 406.768 236.971 405.766 235.641 405.766C234.322 405.766 233.361 406.768 233.367 408.18ZM234.352 408.18C234.346 407.307 234.885 406.697 235.641 406.691C236.396 406.697 236.941 407.307 236.941 408.18C236.941 409.07 236.396 409.668 235.641 409.668C234.885 409.668 234.346 409.07 234.352 408.18ZM238.723 412.504H239.777V407.781H240.984V412.996H242.039V402.496H240.984V406.867H239.777V402.73H238.723V412.504ZM253.031 410.77H248.754V408.613H251.895V403.211H250.793V405.016H245.637V403.211H244.523V408.613H247.652V410.77H243.422V411.695H253.031V410.77ZM245.637 407.711V405.918H250.793V407.711H245.637ZM256.992 405.367V403.457H255.914V405.414C255.92 407.201 255.135 409.059 253.652 409.949L254.344 410.781C255.363 410.16 256.09 409.023 256.471 407.693C256.834 408.906 257.496 409.955 258.48 410.547L259.102 409.691C257.695 408.83 256.992 407.043 256.992 405.367ZM257.965 407.113H259.594V412.48H260.648V402.695H259.594V406.188H257.965V407.113ZM261.762 412.996H262.828V402.496H261.762V412.996ZM273.773 410.758H271.477V407.992C272.32 407.518 272.824 406.773 272.824 405.848C272.824 404.195 271.201 403.111 268.945 403.105C266.695 403.111 265.072 404.195 265.078 405.848C265.072 406.791 265.6 407.541 266.461 408.016V410.758H264.164V411.684H273.773V410.758ZM266.156 405.848C266.156 404.717 267.299 403.996 268.945 403.996C270.58 403.996 271.74 404.717 271.746 405.848C271.74 406.973 270.58 407.705 268.945 407.711C267.299 407.705 266.156 406.973 266.156 405.848ZM267.562 410.758V408.426C267.984 408.525 268.453 408.578 268.945 408.578C269.449 408.578 269.924 408.525 270.352 408.426V410.758H267.562ZM275.73 412.082C276.182 412.076 276.557 411.707 276.562 411.25C276.557 410.793 276.182 410.418 275.73 410.418C275.273 410.418 274.893 410.793 274.898 411.25C274.893 411.707 275.273 412.076 275.73 412.082Z" fill="#DFDFDF"/>
<path d="M152.777 402.414H151.277V408.355H152.777V406.023H154.219V404.793H152.777V402.414ZM144.75 407.793H145.641C147.146 407.793 148.764 407.705 150.516 407.359L150.34 406.141C148.898 406.434 147.527 406.527 146.25 406.545V403.012H144.75V407.793ZM145.453 410.031H147.398V413.078H148.875V408.824H145.453V410.031ZM149.355 410.031H151.277V413.078H152.777V408.824H149.355V410.031ZM158.836 404.828V403.234H157.324V404.828C157.318 406.896 156.41 408.941 154.547 409.727L155.449 410.969C156.75 410.377 157.623 409.217 158.104 407.775C158.59 409.094 159.434 410.16 160.652 410.711L161.531 409.516C159.721 408.748 158.83 406.785 158.836 404.828ZM162.105 413.102H163.617V402.414H162.105V413.102ZM177.586 410.641H173.414V408.719H176.719V407.547H175.266V404.5H176.766V403.305H168.586V404.5H170.062V407.547H168.633V408.719H171.926V410.641H167.824V411.895H177.586V410.641ZM171.562 407.547V404.5H173.789V407.547H171.562ZM187.125 402.426H185.625V410.09H187.125V402.426ZM178.359 405.789C178.359 407.377 179.637 408.496 181.277 408.496C182.912 408.496 184.189 407.377 184.195 405.789C184.189 404.225 182.912 403.1 181.277 403.105C179.637 403.1 178.359 404.225 178.359 405.789ZM179.824 405.789C179.812 404.922 180.439 404.4 181.277 404.406C182.086 404.4 182.713 404.922 182.719 405.789C182.713 406.68 182.086 407.195 181.277 407.195C180.439 407.195 179.812 406.68 179.824 405.789ZM179.977 412.891H187.406V411.695H181.488V409.316H179.977V412.891ZM197.262 407.922H191.238V406.703H196.934V405.531H191.238V404.406H197.18V403.199H189.715V409.105H197.262V407.922ZM188.566 411.836H198.328V410.617H188.566V411.836Z" fill="white"/>
<rect x="80" y="457" width="44" height="44" rx="22" fill="white"/>
<path fill-rule="evenodd" clip-rule="evenodd" d="M96.1691 491.011C96.1324 491.012 96.0956 491.012 96.0587 491.012C92.0001 491.012 88.71 487.722 88.71 483.663C88.71 479.605 92.0001 476.314 96.0587 476.314C99.5406 476.314 102.457 478.736 103.215 481.987C103.978 481.498 104.884 481.214 105.857 481.214C108.563 481.214 110.757 483.408 110.757 486.113C110.757 488.819 108.563 491.012 105.857 491.012C105.819 491.012 105.78 491.012 105.742 491.011H96.1691Z" fill="#238386"/>
<path fill-rule="evenodd" clip-rule="evenodd" d="M105.455 467.488C105.455 467.212 105.231 466.988 104.955 466.988C104.679 466.988 104.455 467.212 104.455 467.488V470.767C104.455 471.043 104.679 471.267 104.955 471.267C105.231 471.267 105.455 471.043 105.455 470.767V467.488ZM110.121 468.372C110.36 468.51 110.442 468.816 110.304 469.055L108.665 471.894C108.527 472.134 108.221 472.216 107.982 472.078C107.743 471.939 107.661 471.634 107.799 471.394L109.438 468.555C109.576 468.316 109.882 468.234 110.121 468.372ZM101.242 471.895C101.38 472.134 101.686 472.216 101.925 472.078C102.164 471.94 102.246 471.634 102.108 471.395L100.469 468.556C100.331 468.317 100.025 468.235 99.786 468.373C99.5468 468.511 99.4649 468.817 99.603 469.056L101.242 471.895ZM115.29 477.323C115.29 477.599 115.066 477.823 114.79 477.823H111.511C111.235 477.823 111.011 477.599 111.011 477.323C111.011 477.047 111.235 476.823 111.511 476.823H114.79C115.066 476.823 115.29 477.047 115.29 477.323ZM113.904 482.49C113.766 482.73 113.46 482.812 113.221 482.673L110.382 481.034C110.142 480.896 110.06 480.59 110.198 480.351C110.337 480.112 110.642 480.03 110.882 480.168L113.721 481.807C113.96 481.945 114.042 482.251 113.904 482.49ZM99.0239 474.477C99.263 474.615 99.5688 474.533 99.7069 474.294C99.845 474.055 99.763 473.749 99.5239 473.611L96.6847 471.971C96.4455 471.833 96.1397 471.915 96.0016 472.154C95.8636 472.394 95.9455 472.699 96.1847 472.837L99.0239 474.477ZM113.904 472.158C114.042 472.397 113.96 472.703 113.721 472.841L110.882 474.48C110.643 474.618 110.337 474.536 110.199 474.297C110.061 474.058 110.143 473.752 110.382 473.614L113.221 471.975C113.46 471.837 113.766 471.919 113.904 472.158ZM101.337 476.127C102.589 477.009 103.612 478.195 104.298 479.578C104.824 479.445 105.375 479.375 105.942 479.375C106.641 479.375 107.315 479.482 107.949 479.68C108.46 479.032 108.765 478.213 108.765 477.324C108.765 475.22 107.059 473.514 104.955 473.514C103.269 473.514 101.839 474.609 101.337 476.127Z" fill="#238386"/>
<path d="M152.637 464.496H151.523V470.355H152.637V467.895H154.16V466.969H152.637V464.496ZM144.867 469.664H145.711C147.258 469.664 148.828 469.564 150.598 469.219L150.469 468.293C148.869 468.615 147.387 468.721 145.98 468.727V465.094H144.867V469.664ZM145.512 471.797H147.75V474.996H148.84V470.895H145.512V471.797ZM149.344 471.797H151.523V474.996H152.637V470.895H149.344V471.797ZM158.613 467.168V465.375H157.488V467.168C157.488 469.172 156.328 471.182 154.676 471.914L155.355 472.852C156.615 472.236 157.582 470.971 158.068 469.43C158.561 470.865 159.516 472.043 160.723 472.617L161.391 471.738C159.762 471.018 158.602 469.084 158.613 467.168ZM162.34 475.02H163.453V464.496H162.34V475.02ZM174.164 464.496H173.098V474.996H174.164V464.496ZM165.246 469.031C165.246 471.311 166.137 472.74 167.508 472.734C168.809 472.74 169.682 471.469 169.781 469.418H170.965V474.48H172.031V464.695H170.965V468.516H169.775C169.646 466.547 168.785 465.334 167.508 465.34C166.137 465.334 165.246 466.758 165.246 469.031ZM166.277 469.031C166.277 467.355 166.752 466.377 167.508 466.383C168.281 466.377 168.762 467.355 168.762 469.031C168.762 470.701 168.281 471.686 167.508 471.68C166.752 471.686 166.277 470.701 166.277 469.031ZM188.004 469.359H178.43V470.262H182.66V471.27C180.709 471.369 179.566 472.02 179.566 473.121C179.566 474.311 180.926 474.979 183.211 474.973C185.467 474.979 186.826 474.311 186.832 473.121C186.826 472.02 185.684 471.375 183.762 471.27V470.262H188.004V469.359ZM178.934 467.93L179.32 468.809C181.143 468.598 182.637 467.83 183.217 466.717C183.785 467.83 185.291 468.598 187.113 468.809L187.512 467.93C185.59 467.736 184.113 466.887 183.961 465.867H187.148V464.977H179.309V465.867H182.461C182.309 466.881 180.82 467.736 178.934 467.93ZM180.691 473.121C180.686 472.471 181.605 472.119 183.211 472.113C184.793 472.119 185.719 472.471 185.719 473.121C185.719 473.76 184.793 474.129 183.211 474.117C181.605 474.129 180.686 473.76 180.691 473.121ZM198.41 472.758H196.113V469.992C196.957 469.518 197.461 468.773 197.461 467.848C197.461 466.195 195.838 465.111 193.582 465.105C191.332 465.111 189.709 466.195 189.715 467.848C189.709 468.791 190.236 469.541 191.098 470.016V472.758H188.801V473.684H198.41V472.758ZM190.793 467.848C190.793 466.717 191.936 465.996 193.582 465.996C195.217 465.996 196.377 466.717 196.383 467.848C196.377 468.973 195.217 469.705 193.582 469.711C191.936 469.705 190.793 468.973 190.793 467.848ZM192.199 472.758V470.426C192.621 470.525 193.09 470.578 193.582 470.578C194.086 470.578 194.561 470.525 194.988 470.426V472.758H192.199ZM207.422 464.508H206.309V472.359H207.422V468.809H208.945V467.883H207.422V464.508ZM199.184 466.629H205.441V465.727H202.875V464.496H201.762V465.727H199.184V466.629ZM199.758 469.113C199.752 470.303 200.789 471.076 202.312 471.082C203.818 471.076 204.855 470.303 204.855 469.113C204.855 467.912 203.818 467.127 202.312 467.133C200.789 467.127 199.752 467.912 199.758 469.113ZM200.766 474.773H207.867V473.871H201.879V471.738H200.766V474.773ZM200.836 469.113C200.824 468.422 201.422 467.994 202.312 467.988C203.203 467.994 203.801 468.422 203.812 469.113C203.801 469.799 203.203 470.221 202.312 470.215C201.422 470.221 200.824 469.799 200.836 469.113ZM152.707 483.562H145.418V484.477H151.605V484.688C151.605 486.012 151.605 487.553 151.184 489.656L152.32 489.762C152.707 487.518 152.707 486.047 152.707 484.688V483.562ZM144.387 491.508H153.961V490.582H144.387V491.508ZM163.477 482.496H162.363V493.02H163.477V482.496ZM155.344 484.348H159.129V486.387H155.355V490.5H156.246C158.104 490.494 159.686 490.424 161.543 490.113L161.438 489.199C159.68 489.486 158.197 489.568 156.492 489.574V487.277H160.266V483.445H155.344V484.348ZM173.625 483.504H166.137V484.406H172.512V484.535C172.506 485.795 172.506 487.283 172.102 489.316L173.227 489.434C173.619 487.283 173.619 485.83 173.625 484.535V483.504ZM165.129 491.578H174.703V490.652H169.875V486.949H168.773V490.652H165.129V491.578ZM207.516 482.496H206.402V492.996H207.516V487.676H209.039V486.762H207.516V482.496ZM199.078 490.043L199.957 490.664C201.861 488.637 202.33 486.246 202.336 483.621H199.453V484.535H201.281C201.17 486.639 200.613 488.443 199.078 490.043ZM202.078 490.746L202.969 491.355C204.896 489.076 205.23 486.275 205.23 483.621H202.676V484.535H204.182C204.1 486.773 203.643 488.918 202.078 490.746ZM213.41 485.59V484.477H215.801V483.551H209.883V484.477H212.285V485.59C212.273 487.4 211.102 489.369 209.52 490.113L210.164 490.992C211.389 490.395 212.373 489.117 212.859 487.617C213.346 489.018 214.33 490.178 215.566 490.723L216.176 489.855C214.559 489.164 213.404 487.348 213.41 485.59ZM217.125 492.996H218.238V482.496H217.125V492.996ZM231.094 482.508H229.98V490.359H231.094V486.809H232.617V485.883H231.094V482.508ZM222.855 484.629H229.113V483.727H226.547V482.496H225.434V483.727H222.855V484.629ZM223.43 487.113C223.424 488.303 224.461 489.076 225.984 489.082C227.49 489.076 228.527 488.303 228.527 487.113C228.527 485.912 227.49 485.127 225.984 485.133C224.461 485.127 223.424 485.912 223.43 487.113ZM224.438 492.773H231.539V491.871H225.551V489.738H224.438V492.773ZM224.508 487.113C224.496 486.422 225.094 485.994 225.984 485.988C226.875 485.994 227.473 486.422 227.484 487.113C227.473 487.799 226.875 488.221 225.984 488.215C225.094 488.221 224.496 487.799 224.508 487.113ZM241.969 482.508H240.855V485.402H238.559V483.199H237.457V484.98H234.832V483.199H233.719V488.52H238.559V486.305H240.855V490.266H241.969V482.508ZM234.832 487.617V485.836H237.457V487.617H234.832ZM235.113 492.773H242.203V491.871H236.238V489.504H235.113V492.773ZM252.621 482.496H251.555V492.996H252.621V482.496ZM243.703 487.031C243.703 489.311 244.594 490.74 245.965 490.734C247.266 490.74 248.139 489.469 248.238 487.418H249.422V492.48H250.488V482.695H249.422V486.516H248.232C248.104 484.547 247.242 483.334 245.965 483.34C244.594 483.334 243.703 484.758 243.703 487.031ZM244.734 487.031C244.734 485.355 245.209 484.377 245.965 484.383C246.738 484.377 247.219 485.355 247.219 487.031C247.219 488.701 246.738 489.686 245.965 489.68C245.209 489.686 244.734 488.701 244.734 487.031ZM265.148 482.508H264.035V489.574H265.148V486.539H266.648V485.625H265.148V482.508ZM256.816 488.402L256.934 489.293C258.785 489.293 261.275 489.275 263.531 488.883L263.438 488.086C262.559 488.215 261.609 488.291 260.672 488.338V487.67C261.855 487.529 262.6 486.967 262.605 486.129C262.6 485.168 261.615 484.57 260.109 484.582C258.604 484.57 257.602 485.168 257.613 486.129C257.602 486.973 258.363 487.535 259.559 487.67V488.379C258.574 488.402 257.631 488.402 256.816 488.402ZM257.086 484.23H263.145V483.398H260.672V482.414H259.559V483.398H257.086V484.23ZM258.129 490.934H264.035V492.996H265.148V490.066H258.129V490.934ZM258.668 486.129C258.668 485.625 259.213 485.332 260.109 485.344C260.994 485.332 261.545 485.625 261.539 486.129C261.545 486.621 260.994 486.943 260.109 486.938C259.213 486.943 258.668 486.621 258.668 486.129ZM275.965 482.508H274.852V490.137H275.965V482.508ZM267.469 485.812C267.475 487.354 268.682 488.426 270.27 488.426C271.852 488.426 273.059 487.354 273.059 485.812C273.059 484.295 271.852 483.217 270.27 483.211C268.682 483.217 267.475 484.295 267.469 485.812ZM268.559 485.812C268.553 484.846 269.291 484.184 270.27 484.184C271.23 484.184 271.969 484.846 271.969 485.812C271.969 486.803 271.23 487.453 270.27 487.453C269.291 487.453 268.553 486.803 268.559 485.812ZM269.098 492.773H276.281V491.871H270.223V489.363H269.098V492.773ZM285.809 482.496H284.707V492.996H285.809V487.676H287.496V486.75H285.809V482.496ZM277.57 485.051H283.793V484.137H281.273V482.637H280.16V484.137H277.57V485.051ZM278.109 488.262C278.109 489.703 279.211 490.705 280.723 490.711C282.229 490.705 283.33 489.703 283.336 488.262C283.33 486.832 282.229 485.824 280.723 485.824C279.211 485.824 278.109 486.832 278.109 488.262ZM279.176 488.262C279.17 487.365 279.826 486.744 280.723 486.738C281.613 486.744 282.264 487.365 282.27 488.262C282.264 489.176 281.613 489.785 280.723 489.773C279.826 489.785 279.17 489.176 279.176 488.262ZM291.199 485.367V483.457H290.121V485.414C290.127 487.201 289.342 489.059 287.859 489.949L288.551 490.781C289.57 490.16 290.297 489.023 290.678 487.693C291.041 488.906 291.703 489.955 292.688 490.547L293.309 489.691C291.902 488.83 291.199 487.043 291.199 485.367ZM292.172 487.113H293.801V492.48H294.855V482.695H293.801V486.188H292.172V487.113ZM295.969 492.996H297.035V482.496H295.969V492.996ZM307.98 490.758H305.684V487.992C306.527 487.518 307.031 486.773 307.031 485.848C307.031 484.195 305.408 483.111 303.152 483.105C300.902 483.111 299.279 484.195 299.285 485.848C299.279 486.791 299.807 487.541 300.668 488.016V490.758H298.371V491.684H307.98V490.758ZM300.363 485.848C300.363 484.717 301.506 483.996 303.152 483.996C304.787 483.996 305.947 484.717 305.953 485.848C305.947 486.973 304.787 487.705 303.152 487.711C301.506 487.705 300.363 486.973 300.363 485.848ZM301.77 490.758V488.426C302.191 488.525 302.66 488.578 303.152 488.578C303.656 488.578 304.131 488.525 304.559 488.426V490.758H301.77ZM309.938 492.082C310.389 492.076 310.764 491.707 310.77 491.25C310.764 490.793 310.389 490.418 309.938 490.418C309.48 490.418 309.1 490.793 309.105 491.25C309.1 491.707 309.48 492.076 309.938 492.082Z" fill="#DFDFDF"/>
<path d="M221.367 464.414H219.855V475.078H221.367V464.414ZM212.438 472.055L213.223 473.25C217.031 471.451 218.162 468.762 218.168 465.527H213.012V466.699H216.645C216.404 469.066 215.191 470.754 212.438 472.055ZM232.5 469.91H228.375V469.061C230.291 468.896 231.51 468.105 231.516 466.863C231.51 465.521 229.969 464.684 227.637 464.684C225.287 464.684 223.746 465.521 223.746 466.863C223.746 468.1 224.959 468.891 226.875 469.055V469.91H222.773V471.105H232.5V469.91ZM223.945 474.891H231.398V473.695H225.445V471.773H223.945V474.891ZM225.305 466.863C225.293 466.225 226.154 465.873 227.637 465.867C229.107 465.873 229.969 466.225 229.969 466.863C229.969 467.549 229.107 467.883 227.637 467.883C226.154 467.883 225.293 467.549 225.305 466.863ZM235.395 473.133H233.73L233.145 476.473H234.387L235.395 473.133ZM247.43 464.414H245.93V470.602H247.43V468.141H248.871V466.922H247.43V464.414ZM238.898 469.629L239.496 470.836C242.672 469.951 244.459 467.959 244.453 465.117H239.402V466.312H242.824C242.59 467.789 241.248 469.008 238.898 469.629ZM240.34 472.91C240.328 474.258 241.781 475.09 243.949 475.09C246.123 475.09 247.541 474.258 247.547 472.91C247.541 471.574 246.123 470.73 243.949 470.73C241.781 470.73 240.328 471.574 240.34 472.91ZM241.816 472.91C241.811 472.254 242.607 471.891 243.949 471.891C245.273 471.891 246.07 472.254 246.07 472.91C246.07 473.555 245.273 473.924 243.949 473.918C242.607 473.924 241.811 473.555 241.816 472.91ZM255 465.246V464.73H253.43V465.246C253.424 466.506 252.141 467.895 249.715 468.199L250.312 469.406C252.152 469.137 253.512 468.27 254.215 467.121C254.912 468.275 256.277 469.137 258.141 469.406L258.727 468.199C256.283 467.895 254.994 466.506 255 465.246ZM249.34 471.434H253.441V475.078H254.918V471.434H259.066V470.215H249.34V471.434ZM261.961 473.133H260.297L259.711 476.473H260.953L261.961 473.133ZM275.262 469.465H265.535V470.648H269.648V471.363C267.762 471.486 266.66 472.137 266.66 473.215C266.66 474.416 268.049 475.084 270.387 475.078C272.707 475.084 274.102 474.416 274.102 473.215C274.102 472.137 273.006 471.492 271.137 471.363V470.648H275.262V469.465ZM266.391 465.961H267.773V467.59H266.461V468.785H274.324V467.59H273V465.961H274.395V464.766H266.391V465.961ZM268.16 473.215C268.154 472.705 268.91 472.459 270.387 472.453C271.834 472.459 272.584 472.705 272.59 473.215C272.584 473.73 271.834 473.977 270.387 473.977C268.91 473.977 268.154 473.73 268.16 473.215ZM269.273 467.59V465.961H271.5V467.59H269.273ZM285.75 465.973H284.367V464.414H282.867V471.188H284.367V469.488H285.75V468.27H284.367V467.18H285.75V465.973ZM275.906 466.594H282.234V465.434H279.82V464.355H278.332V465.434H275.906V466.594ZM276.422 468.879C276.422 470.027 277.506 470.789 279.07 470.789C280.623 470.789 281.695 470.027 281.695 468.879C281.695 467.742 280.623 466.963 279.07 466.957C277.5 466.963 276.422 467.742 276.422 468.879ZM277.277 473.191C277.266 474.363 278.643 475.084 280.887 475.078C283.078 475.084 284.479 474.363 284.484 473.191C284.479 471.99 283.078 471.287 280.887 471.281C278.643 471.287 277.266 471.99 277.277 473.191ZM277.887 468.879C277.881 468.346 278.355 468.053 279.07 468.047C279.791 468.053 280.277 468.346 280.277 468.879C280.277 469.406 279.791 469.682 279.07 469.676C278.355 469.682 277.881 469.406 277.887 468.879ZM278.754 473.191C278.748 472.658 279.486 472.424 280.887 472.418C282.246 472.424 282.984 472.658 282.984 473.191C282.984 473.689 282.246 473.965 280.887 473.965C279.486 473.965 278.748 473.689 278.754 473.191ZM288.527 473.133H286.863L286.277 476.473H287.52L288.527 473.133ZM301.828 469.465H292.102V470.648H296.215V471.363C294.328 471.486 293.227 472.137 293.227 473.215C293.227 474.416 294.615 475.084 296.953 475.078C299.273 475.084 300.668 474.416 300.668 473.215C300.668 472.137 299.572 471.492 297.703 471.363V470.648H301.828V469.465ZM292.957 465.961H294.34V467.59H293.027V468.785H300.891V467.59H299.566V465.961H300.961V464.766H292.957V465.961ZM294.727 473.215C294.721 472.705 295.477 472.459 296.953 472.453C298.4 472.459 299.15 472.705 299.156 473.215C299.15 473.73 298.4 473.977 296.953 473.977C295.477 473.977 294.721 473.73 294.727 473.215ZM295.84 467.59V465.961H298.066V467.59H295.84ZM312.199 469.605H308.062V468.188H306.586V469.605H302.473V470.801H312.199V469.605ZM302.977 467.66L303.504 468.82C305.303 468.557 306.627 467.789 307.307 466.729C307.98 467.795 309.305 468.551 311.109 468.82L311.684 467.66C309.275 467.361 308.08 466.189 308.086 464.941V464.59H306.562V464.941C306.557 466.143 305.332 467.361 302.977 467.66ZM303.551 472.711H309.527V475.078H311.016V471.551H303.551V472.711ZM188.121 490.629H183.984V488.25H182.484V490.629H178.359V491.836H188.121V490.629ZM178.758 487.535L179.344 488.719C181.184 488.385 182.555 487.441 183.229 486.158C183.92 487.424 185.303 488.332 187.172 488.66L187.758 487.477C185.473 487.143 184.137 485.836 184.02 484.43H187.266V483.223H179.168V484.43H182.426C182.297 485.842 180.973 487.178 178.758 487.535ZM192.727 484.078V482.965H191.215V483.984C191.209 485.443 190.447 486.838 188.66 487.406L189.469 488.602C190.67 488.174 191.508 487.348 191.977 486.293C192.428 487.26 193.213 488.027 194.355 488.414L195.152 487.23C193.465 486.697 192.721 485.408 192.727 484.078ZM190.395 490.43H196.23V493.078H197.719V489.246H190.395V490.43ZM194.227 485.625H196.23V488.766H197.719V482.414H196.23V484.395H194.227V485.625Z" fill="white"/>
<rect x="80" y="537" width="44" height="44" rx="22" fill="white"/>
<path fill-rule="evenodd" clip-rule="evenodd" d="M98.7653 548.038C99.2722 548.038 99.6832 548.449 99.6832 548.956V553.405C100.648 553.775 101.334 554.709 101.334 555.804C101.334 556.899 100.648 557.834 99.6835 558.203V566.076C99.6835 566.771 99.3132 567.726 98.6461 568.496C97.943 569.307 96.8458 569.989 95.3417 569.989C93.8377 569.989 92.7405 569.307 92.0374 568.496C91.3703 567.726 91 566.771 91 566.076V562.445C91 561.546 92.0876 561.095 92.7236 561.731L94.7068 563.715C95.0653 564.073 95.0653 564.654 94.7068 565.013C94.3484 565.371 93.7672 565.371 93.4088 565.013L92.8358 564.44V566.076C92.8358 566.236 92.979 566.779 93.4247 567.293C93.8344 567.766 94.4491 568.153 95.3417 568.153C96.2344 568.153 96.8491 567.766 97.2588 567.293C97.7045 566.779 97.8477 566.236 97.8477 566.076V558.203C96.8828 557.834 96.1977 556.899 96.1977 555.804C96.1977 554.71 96.8827 553.775 97.8474 553.406V548.956C97.8474 548.449 98.2583 548.038 98.7653 548.038ZM99.4977 555.804C99.4977 556.209 99.17 556.536 98.7656 556.536C98.3613 556.536 98.0335 556.209 98.0335 555.804C98.0335 555.4 98.3613 555.072 98.7656 555.072C99.17 555.072 99.4977 555.4 99.4977 555.804Z" fill="#238386"/>
<path fill-rule="evenodd" clip-rule="evenodd" d="M113 557.325C113 560.148 111.435 562.686 109.973 564.441L112.369 569.213C112.594 569.66 112.153 570.151 111.684 569.975L107.686 568.478C107.561 568.432 107.424 568.432 107.3 568.478L103.315 569.97C102.844 570.147 102.403 569.652 102.632 569.204L105.046 564.481C103.575 562.725 101.985 560.17 101.985 557.325C101.985 553.058 105.56 549.443 106.95 548.199C107.263 547.918 107.722 547.918 108.036 548.199C109.425 549.443 113 553.058 113 557.325ZM107.493 554.414C108 554.414 108.411 554.003 108.411 553.497C108.411 552.99 108 552.579 107.493 552.579C106.986 552.579 106.575 552.99 106.575 553.497C106.575 554.003 106.986 554.414 107.493 554.414Z" fill="#238386"/>
<path d="M154.195 548.621H152.566V544.496H151.453V554.984H152.566V549.535H154.195V548.621ZM144.785 552.348H145.652C147.229 552.354 148.881 552.248 150.68 551.891L150.551 550.953C148.881 551.293 147.352 551.416 145.887 551.422V545.516H144.785V552.348ZM158.18 545.246C156.527 545.24 155.314 546.266 155.32 547.742C155.314 549.219 156.527 550.244 158.18 550.25C159.838 550.244 161.033 549.219 161.039 547.742C161.033 546.266 159.838 545.24 158.18 545.246ZM154.816 551.832L154.957 552.758C156.832 552.758 159.381 552.746 161.754 552.289L161.672 551.48C159.375 551.814 156.727 551.832 154.816 551.832ZM156.422 547.742C156.41 546.822 157.16 546.207 158.18 546.207C159.199 546.207 159.949 546.822 159.949 547.742C159.949 548.674 159.199 549.277 158.18 549.277C157.16 549.277 156.41 548.674 156.422 547.742ZM162.328 555.02H163.441V544.496H162.328V555.02ZM217.09 544.672C214.723 544.666 213.334 545.305 213.34 546.477C213.334 547.654 214.723 548.293 217.09 548.293C219.457 548.293 220.834 547.654 220.84 546.477C220.834 545.305 219.457 544.666 217.09 544.672ZM212.309 549.828H221.883V548.938H212.309V549.828ZM213.457 551.469H219.574V552.289H213.469V554.891H220.969V554.035H214.559V553.098H220.676V550.637H213.457V551.469ZM214.5 546.477C214.494 545.855 215.42 545.492 217.09 545.492C218.771 545.492 219.697 545.855 219.691 546.477C219.697 547.127 218.771 547.461 217.09 547.461C215.42 547.461 214.494 547.127 214.5 546.477ZM230.344 551.094C228.094 551.094 226.652 551.814 226.652 553.039C226.652 554.258 228.094 554.979 230.344 554.973C232.617 554.979 234.053 554.258 234.059 553.039C234.053 551.814 232.617 551.094 230.344 551.094ZM225.621 550.227H235.172V549.324H230.543V547.355H229.453V549.324H225.621V550.227ZM226.734 545.902H232.875C232.875 546.717 232.875 547.49 232.594 548.562L233.684 548.68C233.982 547.596 233.982 546.729 233.977 545.891V545.012H226.734V545.902ZM227.766 553.039C227.754 552.348 228.756 551.943 230.344 551.938C231.949 551.943 232.945 552.348 232.957 553.039C232.945 553.719 231.949 554.111 230.344 554.117C228.756 554.111 227.754 553.719 227.766 553.039ZM245.578 550.426H235.969V551.34H238.359V554.996H239.508V551.34H242.016V554.996H243.141V551.34H245.578V550.426ZM237.012 547.215C237.018 548.615 238.529 549.5 240.75 549.488C242.971 549.5 244.494 548.615 244.488 547.215C244.494 545.797 242.971 544.895 240.75 544.895C238.529 544.895 237.018 545.797 237.012 547.215ZM238.16 547.215C238.154 546.33 239.191 545.791 240.75 545.785C242.314 545.791 243.346 546.33 243.352 547.215C243.346 548.076 242.314 548.609 240.75 548.609C239.191 548.609 238.154 548.076 238.16 547.215ZM254.531 544.496H253.43V554.996H254.531V549.676H256.219V548.75H254.531V544.496ZM246.293 547.051H252.516V546.137H249.996V544.637H248.883V546.137H246.293V547.051ZM246.832 550.262C246.832 551.703 247.934 552.705 249.445 552.711C250.951 552.705 252.053 551.703 252.059 550.262C252.053 548.832 250.951 547.824 249.445 547.824C247.934 547.824 246.832 548.832 246.832 550.262ZM247.898 550.262C247.893 549.365 248.549 548.744 249.445 548.738C250.336 548.744 250.986 549.365 250.992 550.262C250.986 551.176 250.336 551.785 249.445 551.773C248.549 551.785 247.893 551.176 247.898 550.262ZM265.219 545.504H257.73V546.406H264.105V546.535C264.1 547.795 264.1 549.283 263.695 551.316L264.82 551.434C265.213 549.283 265.213 547.83 265.219 546.535V545.504ZM256.723 553.578H266.297V552.652H261.469V548.949H260.367V552.652H256.723V553.578ZM268.98 553.191H267.668L267.047 556.426H268.043L268.98 553.191ZM152.566 562.496H151.453V573.02H152.566V567.477H154.254V566.562H152.566V562.496ZM144.832 570.406H145.676C147.627 570.412 149.021 570.359 150.668 570.066L150.527 569.129C149.027 569.398 147.709 569.475 145.945 569.48V564.406H149.742V563.504H144.832V570.406ZM164.355 568.262H154.746V569.164H164.355V568.262ZM155.953 563.691H162.035V564.699H155.977V567.395H163.359V566.539H157.078V565.508H163.148V562.812H155.953V563.691ZM156 572.773H163.371V571.871H157.113V569.914H156V572.773ZM171.703 565.168V563.375H170.59V565.168C170.584 567.09 169.494 569.105 167.883 569.879L168.574 570.781C169.77 570.16 170.689 568.9 171.158 567.412C171.621 568.812 172.506 569.984 173.648 570.582L174.34 569.691C172.775 568.93 171.691 567.025 171.703 565.168ZM175.125 572.996H176.238V567.629H177.926V566.68H176.238V562.496H175.125V572.996ZM186.68 562.508H185.566V568.754H186.68V566.059H188.215V565.121H186.68V562.508ZM178.852 563.949H182.543V565.18H178.863V568.262H179.707C181.723 568.262 183.111 568.203 184.734 567.91L184.617 567.02C183.088 567.277 181.799 567.33 179.977 567.336V566.023H183.633V563.059H178.852V563.949ZM179.953 572.867H186.68V569.246H179.953V572.867ZM181.043 571.965V570.113H185.602V571.965H181.043ZM192.223 563.246C190.57 563.24 189.357 564.266 189.363 565.742C189.357 567.219 190.57 568.244 192.223 568.25C193.881 568.244 195.076 567.219 195.082 565.742C195.076 564.266 193.881 563.24 192.223 563.246ZM188.859 569.832L189 570.758C190.875 570.758 193.424 570.746 195.797 570.289L195.715 569.48C193.418 569.814 190.77 569.832 188.859 569.832ZM190.465 565.742C190.453 564.822 191.203 564.207 192.223 564.207C193.242 564.207 193.992 564.822 193.992 565.742C193.992 566.674 193.242 567.277 192.223 567.277C191.203 567.277 190.453 566.674 190.465 565.742ZM196.371 573.02H197.484V562.496H196.371V573.02ZM210.621 567.184H204.375V563.363H203.25V568.098H206.332V570.77H202.102V571.684H211.711V570.77H207.445V568.098H210.621V567.184ZM220.652 562.496H219.551V572.996H220.652V567.676H222.34V566.75H220.652V562.496ZM212.414 565.051H218.637V564.137H216.117V562.637H215.004V564.137H212.414V565.051ZM212.953 568.262C212.953 569.703 214.055 570.705 215.566 570.711C217.072 570.705 218.174 569.703 218.18 568.262C218.174 566.832 217.072 565.824 215.566 565.824C214.055 565.824 212.953 566.832 212.953 568.262ZM214.02 568.262C214.014 567.365 214.67 566.744 215.566 566.738C216.457 566.744 217.107 567.365 217.113 568.262C217.107 569.176 216.457 569.785 215.566 569.773C214.67 569.785 214.014 569.176 214.02 568.262ZM232.441 568.461H222.832V569.387H227.062V572.996H228.152V569.387H232.441V568.461ZM223.875 565.227C223.881 566.639 225.393 567.535 227.613 567.535C229.834 567.535 231.357 566.639 231.352 565.227C231.357 563.797 229.834 562.895 227.613 562.895C225.393 562.895 223.881 563.797 223.875 565.227ZM225.023 565.227C225.018 564.342 226.055 563.791 227.613 563.785C229.178 563.791 230.209 564.342 230.215 565.227C230.209 566.1 229.178 566.645 227.613 566.645C226.055 566.645 225.018 566.1 225.023 565.227ZM241.723 567.336H235.523V564.207H241.629V563.305H234.41V568.227H237.445V570.793H233.215V571.707H242.824V570.793H238.547V568.227H241.723V567.336ZM254.777 562.508H253.664V569.574H254.777V566.539H256.277V565.625H254.777V562.508ZM246.445 568.402L246.562 569.293C248.414 569.293 250.904 569.275 253.16 568.883L253.066 568.086C252.188 568.215 251.238 568.291 250.301 568.338V567.67C251.484 567.529 252.229 566.967 252.234 566.129C252.229 565.168 251.244 564.57 249.738 564.582C248.232 564.57 247.23 565.168 247.242 566.129C247.23 566.973 247.992 567.535 249.188 567.67V568.379C248.203 568.402 247.26 568.402 246.445 568.402ZM246.715 564.23H252.773V563.398H250.301V562.414H249.188V563.398H246.715V564.23ZM247.758 570.934H253.664V572.996H254.777V570.066H247.758V570.934ZM248.297 566.129C248.297 565.625 248.842 565.332 249.738 565.344C250.623 565.332 251.174 565.625 251.168 566.129C251.174 566.621 250.623 566.943 249.738 566.938C248.842 566.943 248.297 566.621 248.297 566.129ZM265.594 562.508H264.48V570.137H265.594V562.508ZM257.098 565.812C257.104 567.354 258.311 568.426 259.898 568.426C261.48 568.426 262.688 567.354 262.688 565.812C262.688 564.295 261.48 563.217 259.898 563.211C258.311 563.217 257.104 564.295 257.098 565.812ZM258.188 565.812C258.182 564.846 258.92 564.184 259.898 564.184C260.859 564.184 261.598 564.846 261.598 565.812C261.598 566.803 260.859 567.453 259.898 567.453C258.92 567.453 258.182 566.803 258.188 565.812ZM258.727 572.773H265.91V571.871H259.852V569.363H258.727V572.773ZM272.449 564.23H270.398V562.801H269.297V564.23H267.234V565.133H272.449V564.23ZM267.574 568.18C267.568 569.615 268.529 570.623 269.848 570.617C271.178 570.623 272.127 569.615 272.133 568.18C272.127 566.768 271.178 565.766 269.848 565.766C268.529 565.766 267.568 566.768 267.574 568.18ZM268.559 568.18C268.553 567.307 269.092 566.697 269.848 566.691C270.604 566.697 271.148 567.307 271.148 568.18C271.148 569.07 270.604 569.668 269.848 569.668C269.092 569.668 268.553 569.07 268.559 568.18ZM272.93 572.504H273.984V567.781H275.191V572.996H276.246V562.496H275.191V566.867H273.984V562.73H272.93V572.504ZM287.238 570.77H282.961V568.613H286.102V563.211H285V565.016H279.844V563.211H278.73V568.613H281.859V570.77H277.629V571.695H287.238V570.77ZM279.844 567.711V565.918H285V567.711H279.844ZM291.199 565.367V563.457H290.121V565.414C290.127 567.201 289.342 569.059 287.859 569.949L288.551 570.781C289.57 570.16 290.297 569.023 290.678 567.693C291.041 568.906 291.703 569.955 292.688 570.547L293.309 569.691C291.902 568.83 291.199 567.043 291.199 565.367ZM292.172 567.113H293.801V572.48H294.855V562.695H293.801V566.188H292.172V567.113ZM295.969 572.996H297.035V562.496H295.969V572.996ZM307.98 570.758H305.684V567.992C306.527 567.518 307.031 566.773 307.031 565.848C307.031 564.195 305.408 563.111 303.152 563.105C300.902 563.111 299.279 564.195 299.285 565.848C299.279 566.791 299.807 567.541 300.668 568.016V570.758H298.371V571.684H307.98V570.758ZM300.363 565.848C300.363 564.717 301.506 563.996 303.152 563.996C304.787 563.996 305.947 564.717 305.953 565.848C305.947 566.973 304.787 567.705 303.152 567.711C301.506 567.705 300.363 566.973 300.363 565.848ZM301.77 570.758V568.426C302.191 568.525 302.66 568.578 303.152 568.578C303.656 568.578 304.131 568.525 304.559 568.426V570.758H301.77ZM310.676 563.516H309.305L309.41 569.551H310.57L310.676 563.516ZM309.164 571.25C309.158 571.707 309.539 572.076 309.996 572.082C310.447 572.076 310.822 571.707 310.828 571.25C310.822 570.793 310.447 570.418 309.996 570.418C309.539 570.418 309.158 570.793 309.164 571.25Z" fill="#DFDFDF"/>
<path d="M176.449 544.414H174.949V550.355H176.449V548.023H177.891V546.793H176.449V544.414ZM168.422 549.793H169.312C170.818 549.793 172.436 549.705 174.188 549.359L174.012 548.141C172.57 548.434 171.199 548.527 169.922 548.545V545.012H168.422V549.793ZM169.125 552.031H171.07V555.078H172.547V550.824H169.125V552.031ZM173.027 552.031H174.949V555.078H176.449V550.824H173.027V552.031ZM182.508 546.828V545.234H180.996V546.828C180.99 548.896 180.082 550.941 178.219 551.727L179.121 552.969C180.422 552.377 181.295 551.217 181.775 549.775C182.262 551.094 183.105 552.16 184.324 552.711L185.203 551.516C183.393 550.748 182.502 548.785 182.508 546.828ZM185.777 555.102H187.289V544.414H185.777V555.102ZM200.461 544.414H198.949V555.078H200.461V544.414ZM191.531 552.055L192.316 553.25C196.125 551.451 197.256 548.762 197.262 545.527H192.105V546.699H195.738C195.498 549.066 194.285 550.754 191.531 552.055ZM211.617 550.133H207.48V549.359H210.633V548.211H204.562V547.508H210.434V544.613H203.051V545.773H208.934V546.43H203.074V549.359H205.992V550.133H201.855V551.328H211.617V550.133ZM202.945 553.109H208.98V555.031H210.492V551.938H202.945V553.109Z" fill="white"/>
<path d="M102.797 278.602C100.802 278.602 99.3926 277.778 98.5673 276.128C97.8109 274.478 96.6075 270.217 94.957 263.343C93.9255 259.15 93.1347 257.054 92.5845 257.054C91.7593 257.054 90.7278 258.463 89.49 261.281C88.1834 264.168 87.3582 266.849 87.0143 269.323C86.533 272.829 85.8453 275.063 84.9513 276.025C84.1261 277.056 82.8883 277.09 81.2378 276.128C80.7564 275.853 80.447 274.375 80.3095 271.695C80.1719 269.014 80.1719 263.206 80.3095 254.27C80.1032 248.359 80 243.685 80 240.248C80 235.849 80.1375 233.512 80.4126 233.237C81.1003 232.412 81.7192 232 82.2693 232C83.3696 232 84.3668 233.375 85.2607 236.124C85.5358 238.049 85.7765 240.626 85.9828 243.857C86.1203 245.919 86.2923 249.012 86.4986 253.136C86.9112 252.792 87.7364 252.105 88.9742 251.074C92.6189 247.981 95.7478 248.187 98.361 251.693C100.63 254.717 102.384 259.597 103.622 266.333C103.966 268.258 104.55 270.182 105.375 272.107C105.926 273.069 106.201 273.997 106.201 274.891C106.201 275.441 106.097 275.99 105.891 276.54C105.272 277.915 104.241 278.602 102.797 278.602ZM116.413 278.602C114.831 278.602 113.834 277.709 113.421 275.922C113.009 274.135 112.768 270.114 112.699 263.859C112.699 263.171 112.699 262.518 112.699 261.9C112.699 255.095 113.043 251.246 113.731 250.352C114.487 249.459 115.312 249.012 116.206 249.012C116.344 249.012 116.447 249.012 116.516 249.012C117.547 249.149 118.166 249.768 118.372 250.868C118.785 252.93 119.095 257.432 119.301 264.374C119.438 267.261 119.507 269.632 119.507 271.488C119.507 273.619 119.438 275.131 119.301 276.025C118.957 277.743 117.994 278.602 116.413 278.602ZM128.997 240.454C129.616 239.973 130.132 239.733 130.544 239.733C132.814 239.733 133.33 244.75 132.092 254.786C132.642 254.854 133.536 254.923 134.774 254.992C136.011 254.992 137.181 255.026 138.281 255.095C139.312 255.164 140.378 255.267 141.479 255.404C142.579 255.473 143.438 255.645 144.057 255.92C144.745 256.126 145.123 256.435 145.192 256.848C145.536 257.26 145.708 257.673 145.708 258.085C145.708 258.704 145.33 259.253 144.573 259.735C143.404 260.491 141.307 261.041 138.281 261.384C137.043 261.453 135.221 261.625 132.814 261.9C133.226 265.268 134.052 268.361 135.289 271.179C135.84 272.279 136.39 272.932 136.94 273.138C137.559 273.344 138.865 273.379 140.86 273.241C142.097 273.172 143.026 273.172 143.645 273.241C144.332 273.241 144.779 273.344 144.986 273.55C145.261 273.757 145.433 274.1 145.501 274.581C145.708 275.681 145.158 276.85 143.851 278.087C142.544 279.393 141.1 280.218 139.519 280.561C138.762 280.699 138.04 280.768 137.352 280.768C135.152 280.768 133.261 280.046 131.679 278.602C129.547 276.747 127.897 273.482 126.728 268.808C125.903 265.577 125.49 261.865 125.49 257.673C125.49 255.885 125.559 253.995 125.696 252.002C126.246 245.472 127.347 241.623 128.997 240.454ZM164.069 248.187C165.651 248.187 166.854 248.359 167.679 248.703C168.504 249.115 169.57 250.043 170.877 251.486C171.564 252.243 172.63 253.342 174.075 254.786C174.281 254.442 174.728 253.789 175.415 252.827C176.172 251.658 177.41 250.765 179.129 250.146C180.917 249.527 182.568 249.356 184.08 249.631C185.662 249.974 187.519 251.177 189.65 253.239C191.851 255.301 193.295 257.295 193.983 259.219C194.877 261.35 195.702 264.684 196.458 269.22C197.077 272.657 197.387 275.028 197.387 276.334C197.387 276.815 197.352 277.159 197.284 277.365C197.077 278.19 196.39 278.774 195.221 279.118C192.401 279.943 190.441 277.296 189.341 271.179C188.584 266.642 188.035 263.859 187.691 262.828C187.14 261.178 186.178 259.7 184.802 258.394C183.427 257.02 182.361 256.504 181.605 256.848C180.642 257.191 179.886 258.669 179.335 261.281C178.716 263.893 178.407 267.055 178.407 270.767C178.407 274.341 178.166 276.678 177.685 277.778C177.134 278.877 176.069 279.427 174.487 279.427C173.318 279.427 172.424 278.912 171.805 277.881C171.255 276.85 170.808 274.959 170.464 272.21C169.983 269.048 169.158 265.646 167.989 262.003C166.889 258.429 165.994 256.332 165.307 255.714C163.518 254.27 161.868 255.404 160.355 259.116C159.186 262.003 158.464 265.818 158.189 270.56C157.914 274.066 157.673 276.231 157.467 277.056C157.261 277.812 156.745 278.224 155.92 278.293C154.682 278.499 153.754 277.984 153.135 276.747C152.516 275.578 152.069 273.31 151.794 269.942C151.656 268.773 151.587 267.674 151.587 266.642C151.587 260.525 153.479 255.473 157.261 251.486C158.636 250.043 159.736 249.115 160.562 248.703C161.318 248.359 162.487 248.187 164.069 248.187ZM222.453 271.798C222.453 270.01 222.178 268.498 221.628 267.261C221.077 265.818 220.252 265.096 219.152 265.096C217.914 265.096 216.332 265.955 214.407 267.674C213.238 268.773 212.447 269.667 212.034 270.354C211.76 270.904 211.622 271.591 211.622 272.416C211.622 272.554 211.622 272.691 211.622 272.829C211.76 274.753 212.379 275.956 213.479 276.437C213.823 276.575 214.235 276.643 214.716 276.643C215.679 276.643 216.951 276.334 218.533 275.716C220.183 275.097 221.25 274.547 221.731 274.066C222.212 273.585 222.453 272.829 222.453 271.798ZM225.547 280.664C225.135 281.077 223.622 281.661 221.009 282.417C218.395 283.242 216.367 283.654 214.923 283.654C211.966 283.654 209.524 282.623 207.599 280.561C205.674 278.568 204.711 276.059 204.711 273.035C204.711 269.667 206.12 266.505 208.94 263.549C211.828 260.594 214.923 259.116 218.223 259.116C219.187 259.116 219.839 259.047 220.183 258.91C220.528 258.772 220.631 258.497 220.493 258.085C220.355 257.673 219.977 256.951 219.358 255.92C218.464 254.683 217.227 254.064 215.645 254.064C214.132 254.133 212.722 254.82 211.415 256.126C209.284 258.532 207.737 258.944 206.774 257.363C206.293 256.607 206.258 255.611 206.671 254.373C207.015 253.136 207.805 251.899 209.043 250.662C210.075 249.631 211.244 248.978 212.55 248.703C213.444 248.496 214.51 248.393 215.748 248.393C216.298 248.393 216.883 248.393 217.501 248.393C221.077 248.737 223.725 250.18 225.444 252.724C227.095 255.198 228.367 259.116 229.261 264.477C229.811 267.364 230.086 269.667 230.086 271.385C230.086 271.591 230.051 271.798 229.983 272.004C229.914 273.722 229.399 275.406 228.436 277.056C227.61 278.637 226.647 279.84 225.547 280.664ZM251.645 256.745C250.888 256.057 249.926 255.542 248.756 255.198C248.069 254.923 247.381 254.786 246.693 254.786C246.143 254.786 245.627 254.854 245.146 254.992C243.977 255.267 243.221 255.989 242.877 257.157C242.533 258.326 242.293 261.453 242.155 266.539C242.086 268.052 242.086 269.323 242.155 270.354C242.155 272.966 242.258 274.306 242.464 274.375C243.358 274.375 244.63 273.722 246.281 272.416C247.863 271.179 249.341 269.632 250.716 267.777C252.779 265.096 253.811 262.759 253.811 260.766C253.811 259.185 253.089 257.844 251.645 256.745ZM244.218 280.252C243.186 280.252 242.567 280.527 242.361 281.077C242.155 281.627 242.052 283.311 242.052 286.129C242.052 288.603 241.983 290.253 241.845 291.078C241.639 291.971 241.192 292.59 240.504 292.934C240.092 293.14 239.679 293.243 239.266 293.243C238.648 293.243 238.063 292.968 237.513 292.418C236.962 291.868 236.585 290.459 236.378 288.191C236.24 285.923 236.172 281.111 236.172 273.757C236.172 264.546 236.378 258.669 236.791 256.126C237.272 253.652 238.544 251.693 240.607 250.249C241.707 249.493 243.358 249.115 245.559 249.115C246.04 249.115 246.59 249.115 247.209 249.115C250.235 249.39 252.676 250.146 254.533 251.383C257.215 253.239 258.934 255.679 259.691 258.704C259.897 259.735 260 260.731 260 261.694C260 263.687 259.519 265.646 258.556 267.57C256.631 271.213 254.327 274.238 251.645 276.643C248.894 279.049 246.419 280.252 244.218 280.252Z" fill="white"/>
<path d="M91.524 299.082H89.8024V307.464H91.524V304.034H93.4783V302.604H91.524V299.082ZM80.4808 301.789H88.7942V300.42H85.5061V298.99H83.7845V300.42H80.4808V301.789ZM81.1943 304.788C81.1943 306.287 82.5902 307.279 84.6375 307.279C86.6616 307.279 88.0575 306.287 88.0653 304.788C88.0575 303.303 86.6693 302.296 84.6375 302.296C82.5902 302.296 81.1943 303.303 81.1943 304.788ZM82.4661 312.815H91.524V308.125H82.4661V312.815ZM82.8694 304.788C82.8616 304.034 83.5751 303.588 84.6375 303.588C85.7 303.588 86.4212 304.034 86.4212 304.788C86.4212 305.564 85.7 306.003 84.6375 306.003C83.5751 306.003 82.8616 305.564 82.8694 304.788ZM84.1722 311.431V309.478H89.8179V311.431H84.1722Z" fill="white"/>
<path d="M97.6505 300.712H94.4554V302.096H96.1538C96.053 304.749 95.5954 307.01 94.0522 309.171L95.4015 309.893C97.2705 307.156 97.635 303.996 97.6505 300.712ZM97.2162 309.924L98.5346 310.662C99.566 309.148 100.132 307.471 100.435 305.756H102.04V312.323H103.668V299.42H102.04V304.372H100.621C100.753 303.142 100.776 301.904 100.784 300.712H98.0693V302.096H99.2946C99.2325 304.849 98.8991 307.533 97.2162 309.924ZM104.723 312.985H106.383V299.082H104.723V312.985Z" fill="white"/>
<path d="M124.467 304.818H111.687V306.187H124.467V304.818ZM112.308 303.019L112.85 304.342C115.34 304.134 117.217 303.296 118.062 302.058C118.907 303.296 120.807 304.134 123.32 304.342L123.863 303.019C121.218 302.85 119.496 301.942 119.148 300.912H123.32V299.559H112.85V300.912H116.984C116.619 301.935 114.921 302.85 112.308 303.019ZM113.192 308.386H121.179V309.324H113.207V312.862H123.258V311.554H114.898V310.539H122.87V307.125H113.192V308.386Z" fill="white"/>
<path d="M137.124 299.082H135.387V312.985H137.124V299.082ZM125.507 309.155L126.406 310.524C131.315 308.209 132.936 304.695 132.936 300.558H126.22V301.912H131.183C130.873 305.072 129.183 307.425 125.507 309.155Z" fill="white"/>
<path d="M150.493 303.019H142.49V299.589H140.784V304.372H150.493V303.019ZM139.125 307.34H151.936V305.987H139.125V307.34ZM140.66 312.662H150.587V311.278H142.382V308.571H140.66V312.662Z" fill="white"/>
<path d="M167.694 299.082H165.973V306.833H167.694V303.68H169.648V302.281H167.694V299.082ZM157.24 306.018H158.388C160.412 306.01 162.522 305.887 164.84 305.433L164.654 304.019C162.638 304.434 160.746 304.565 158.977 304.588V299.882H157.24V306.018ZM158.14 308.878H160.901V312.985H162.607V307.494H158.14V308.878ZM163.243 308.878H165.973V312.985H167.694V307.494H163.243V308.878Z" fill="white"/>
<path d="M175.666 302.419V300.205H173.914V302.419C173.906 305.103 172.541 307.756 170.207 308.755L171.261 310.186C172.96 309.394 174.17 307.794 174.813 305.841C175.465 307.656 176.644 309.124 178.257 309.863L179.28 308.494C177.008 307.525 175.651 304.972 175.666 302.419ZM180.288 313H182.026V299.082H180.288V313Z" fill="white"/>
<path d="M200.638 306.31H195.085V305.28H199.211V303.972H191.192V302.988H198.761V301.727H191.192V300.774H199.102V299.451H189.47V305.28H193.363V306.31H187.826V307.663H200.638V306.31ZM189.346 310.693C189.346 312.185 191.107 312.969 194.232 312.969C197.311 312.969 199.079 312.185 199.087 310.693C199.079 309.24 197.311 308.425 194.232 308.432C191.107 308.425 189.346 309.24 189.346 310.693ZM191.068 310.693C191.068 310.032 192.123 309.709 194.232 309.709C196.303 309.709 197.35 310.032 197.365 310.693C197.35 311.37 196.303 311.693 194.232 311.693C192.123 311.693 191.068 311.37 191.068 310.693Z" fill="white"/>
<path d="M212.642 299.082H210.921V307.202H212.642V303.926H214.597V302.511H212.642V299.082ZM201.599 301.743H209.913V300.374H206.625V298.974H204.903V300.374H201.599V301.743ZM202.313 304.665C202.313 306.141 203.709 307.117 205.756 307.11C207.78 307.117 209.176 306.141 209.184 304.665C209.176 303.188 207.78 302.219 205.756 302.219C203.709 302.219 202.313 303.188 202.313 304.665ZM203.585 312.815H212.642V307.756H210.921V308.955H205.291V307.756H203.585V312.815ZM203.988 304.665C203.98 303.934 204.694 303.48 205.756 303.48C206.818 303.48 207.54 303.934 207.54 304.665C207.54 305.418 206.818 305.849 205.756 305.849C204.694 305.849 203.98 305.418 203.988 304.665ZM205.291 311.462V310.278H210.921V311.462H205.291Z" fill="white"/>
<path d="M230.681 299.482H220.227V300.774H222.15V302.881H220.304V304.172H230.603V302.881H228.757V300.774H230.681V299.482ZM219.079 306.402H231.859V305.049H219.079V306.402ZM220.584 308.586H228.571V309.463H220.599V312.862H230.65V311.585H222.29V310.647H230.262V307.34H220.584V308.586ZM223.872 302.881V300.774H227.02V302.881H223.872Z" fill="white"/>
<path d="M244.795 299.097H243.151V302.558H241.693V299.359H240.08V307.31H241.693V303.942H243.151V308.479H244.795V299.097ZM233.379 301.481H237.055V302.957H233.395V307.156H234.357C236.443 307.156 237.854 307.11 239.521 306.771L239.366 305.433C237.939 305.71 236.706 305.795 235.07 305.81V304.203H238.715V300.097H233.379V301.481ZM234.512 311.585L235.21 312.908C237.397 312.585 239.126 311.601 239.995 310.232C240.855 311.601 242.585 312.585 244.779 312.908L245.477 311.585C242.639 311.216 240.848 309.717 240.855 308.14V307.848H239.134V308.14C239.118 309.717 237.327 311.216 234.512 311.585Z" fill="white"/>
<path d="M259.312 305.91H253.76V304.634H258.056V303.25H256.21V300.866H258.134V299.497H247.68V300.866H249.603V303.25H247.757V304.634H252.038V305.91H246.532V307.264H259.312V305.91ZM248.037 312.815H257.761V308.356H248.037V312.815ZM249.743 311.431V309.693H256.086V311.431H249.743ZM251.325 303.25V300.866H254.473V303.25H251.325Z" fill="white"/>
</g>
<defs>
<linearGradient id="paint0_linear_2110_17252" x1="0" y1="0" x2="694.822" y2="1232.2" gradientUnits="userSpaceOnUse">
<stop stop-color="#008143" stop-opacity="0"/>
<stop offset="1" stop-color="#007381"/>
</linearGradient>
<linearGradient id="paint1_linear_2110_17252" x1="0" y1="0" x2="694.822" y2="1232.2" gradientUnits="userSpaceOnUse">
<stop stop-color="white"/>
<stop offset="1" stop-color="white" stop-opacity="0"/>
</linearGradient>
<clipPath id="clip0_2110_17252">
<rect width="1440" height="812" fill="white"/>
</clipPath>
</defs>
</svg>
