<svg width="375" height="159" viewBox="0 0 375 159" fill="none" xmlns="http://www.w3.org/2000/svg">
<path d="M106.062 140.751C103.646 140.751 101.938 139.751 100.938 137.751C100.021 135.751 98.5625 130.584 96.5625 122.251C95.3125 117.168 94.3542 114.626 93.6875 114.626C92.6875 114.626 91.4375 116.334 89.9375 119.751C88.3542 123.251 87.3542 126.501 86.9375 129.501C86.3542 133.751 85.5208 136.459 84.4375 137.626C83.4375 138.876 81.9375 138.918 79.9375 137.751C79.3542 137.418 78.9792 135.626 78.8125 132.376C78.6458 129.126 78.6458 122.084 78.8125 111.251C78.5625 104.084 78.4375 98.4177 78.4375 94.251C78.4375 88.9176 78.6042 86.0843 78.9375 85.751C79.7708 84.751 80.5208 84.251 81.1875 84.251C82.5208 84.251 83.7292 85.9176 84.8125 89.251C85.1458 91.5843 85.4375 94.7093 85.6875 98.626C85.8542 101.126 86.0625 104.876 86.3125 109.876C86.8125 109.459 87.8125 108.626 89.3125 107.376C93.7292 103.626 97.5208 103.876 100.688 108.126C103.438 111.793 105.562 117.709 107.062 125.876C107.479 128.209 108.188 130.543 109.188 132.876C109.854 134.043 110.188 135.168 110.188 136.251C110.188 136.918 110.062 137.584 109.812 138.251C109.062 139.918 107.812 140.751 106.062 140.751ZM122.562 140.751C120.646 140.751 119.438 139.668 118.938 137.501C118.438 135.334 118.146 130.459 118.062 122.876C118.062 122.043 118.062 121.251 118.062 120.501C118.062 112.251 118.479 107.584 119.312 106.501C120.229 105.418 121.229 104.876 122.312 104.876C122.479 104.876 122.604 104.876 122.688 104.876C123.938 105.043 124.688 105.793 124.938 107.126C125.438 109.626 125.812 115.084 126.062 123.501C126.229 127.001 126.312 129.876 126.312 132.126C126.312 134.709 126.229 136.543 126.062 137.626C125.646 139.709 124.479 140.751 122.562 140.751ZM137.812 94.501C138.562 93.9176 139.188 93.626 139.688 93.626C142.438 93.626 143.062 99.7093 141.562 111.876C142.229 111.959 143.312 112.043 144.812 112.126C146.312 112.126 147.729 112.168 149.062 112.251C150.312 112.334 151.604 112.459 152.938 112.626C154.271 112.709 155.312 112.918 156.062 113.251C156.896 113.501 157.354 113.876 157.438 114.376C157.854 114.876 158.062 115.376 158.062 115.876C158.062 116.626 157.604 117.293 156.688 117.876C155.271 118.793 152.729 119.459 149.062 119.876C147.562 119.959 145.354 120.168 142.438 120.501C142.938 124.584 143.938 128.334 145.438 131.751C146.104 133.084 146.771 133.876 147.438 134.126C148.188 134.376 149.771 134.418 152.188 134.251C153.688 134.168 154.812 134.168 155.562 134.251C156.396 134.251 156.938 134.376 157.188 134.626C157.521 134.876 157.729 135.293 157.812 135.876C158.062 137.209 157.396 138.626 155.812 140.126C154.229 141.709 152.479 142.709 150.562 143.126C149.646 143.293 148.771 143.376 147.938 143.376C145.271 143.376 142.979 142.501 141.062 140.751C138.479 138.501 136.479 134.543 135.062 128.876C134.062 124.959 133.562 120.459 133.562 115.376C133.562 113.209 133.646 110.918 133.812 108.501C134.479 100.584 135.812 95.9177 137.812 94.501ZM180.312 103.876C182.23 103.876 183.688 104.084 184.688 104.501C185.688 105.001 186.98 106.126 188.562 107.876C189.396 108.793 190.688 110.126 192.438 111.876C192.688 111.459 193.229 110.668 194.062 109.501C194.979 108.084 196.48 107.001 198.562 106.251C200.73 105.501 202.73 105.293 204.562 105.626C206.48 106.043 208.73 107.501 211.312 110.001C213.98 112.501 215.729 114.918 216.562 117.251C217.645 119.834 218.646 123.876 219.562 129.376C220.312 133.543 220.688 136.418 220.688 138.001C220.688 138.584 220.645 139.001 220.562 139.251C220.312 140.251 219.48 140.959 218.062 141.376C214.645 142.376 212.27 139.168 210.938 131.751C210.021 126.251 209.354 122.876 208.938 121.626C208.271 119.626 207.105 117.834 205.438 116.251C203.77 114.584 202.479 113.959 201.562 114.376C200.395 114.793 199.479 116.584 198.812 119.751C198.062 122.918 197.688 126.751 197.688 131.251C197.688 135.584 197.396 138.418 196.812 139.751C196.146 141.084 194.855 141.751 192.938 141.751C191.52 141.751 190.438 141.126 189.688 139.876C189.021 138.626 188.479 136.334 188.062 133.001C187.479 129.168 186.48 125.043 185.062 120.626C183.73 116.293 182.646 113.751 181.812 113.001C179.645 111.251 177.646 112.626 175.812 117.126C174.396 120.626 173.521 125.251 173.188 131.001C172.854 135.251 172.562 137.876 172.312 138.876C172.062 139.793 171.438 140.293 170.438 140.376C168.938 140.626 167.812 140.001 167.062 138.501C166.312 137.084 165.771 134.334 165.438 130.251C165.271 128.834 165.188 127.501 165.188 126.251C165.188 118.834 167.479 112.709 172.062 107.876C173.729 106.126 175.062 105.001 176.062 104.501C176.979 104.084 178.395 103.876 180.312 103.876ZM251.062 132.501C251.062 130.334 250.729 128.501 250.062 127.001C249.396 125.251 248.395 124.376 247.062 124.376C245.562 124.376 243.645 125.418 241.312 127.501C239.895 128.834 238.938 129.918 238.438 130.751C238.104 131.418 237.938 132.251 237.938 133.251C237.938 133.418 237.938 133.584 237.938 133.751C238.104 136.084 238.855 137.543 240.188 138.126C240.604 138.293 241.104 138.376 241.688 138.376C242.855 138.376 244.395 138.001 246.312 137.251C248.312 136.501 249.604 135.834 250.188 135.251C250.771 134.668 251.062 133.751 251.062 132.501ZM254.812 143.251C254.312 143.751 252.48 144.459 249.312 145.376C246.145 146.376 243.688 146.876 241.938 146.876C238.355 146.876 235.395 145.626 233.062 143.126C230.73 140.709 229.562 137.668 229.562 134.001C229.562 129.918 231.27 126.084 234.688 122.501C238.188 118.918 241.938 117.126 245.938 117.126C247.105 117.126 247.896 117.043 248.312 116.876C248.729 116.709 248.854 116.376 248.688 115.876C248.521 115.376 248.062 114.501 247.312 113.251C246.23 111.751 244.73 111.001 242.812 111.001C240.98 111.084 239.27 111.918 237.688 113.501C235.105 116.418 233.23 116.918 232.062 115.001C231.479 114.084 231.438 112.876 231.938 111.376C232.354 109.876 233.312 108.376 234.812 106.876C236.062 105.626 237.48 104.834 239.062 104.501C240.145 104.251 241.438 104.126 242.938 104.126C243.604 104.126 244.312 104.126 245.062 104.126C249.396 104.543 252.605 106.293 254.688 109.376C256.688 112.376 258.23 117.126 259.312 123.626C259.979 127.126 260.312 129.918 260.312 132.001C260.312 132.251 260.27 132.501 260.188 132.751C260.105 134.834 259.48 136.876 258.312 138.876C257.312 140.793 256.145 142.251 254.812 143.251ZM286.438 114.251C285.521 113.418 284.355 112.793 282.938 112.376C282.104 112.043 281.271 111.876 280.438 111.876C279.771 111.876 279.146 111.959 278.562 112.126C277.145 112.459 276.229 113.334 275.812 114.751C275.396 116.168 275.104 119.959 274.938 126.126C274.855 127.959 274.855 129.501 274.938 130.751C274.938 133.918 275.062 135.543 275.312 135.626C276.395 135.626 277.938 134.834 279.938 133.251C281.855 131.751 283.645 129.876 285.312 127.626C287.812 124.376 289.062 121.543 289.062 119.126C289.062 117.209 288.188 115.584 286.438 114.251ZM277.438 142.751C276.188 142.751 275.438 143.084 275.188 143.751C274.938 144.418 274.812 146.459 274.812 149.876C274.812 152.876 274.729 154.876 274.562 155.876C274.312 156.959 273.771 157.709 272.938 158.126C272.438 158.376 271.938 158.501 271.438 158.501C270.688 158.501 269.979 158.168 269.312 157.501C268.646 156.834 268.188 155.126 267.938 152.376C267.771 149.626 267.688 143.793 267.688 134.876C267.688 123.709 267.938 116.584 268.438 113.501C269.021 110.501 270.562 108.126 273.062 106.376C274.395 105.459 276.395 105.001 279.062 105.001C279.646 105.001 280.312 105.001 281.062 105.001C284.73 105.334 287.688 106.251 289.938 107.751C293.188 110.001 295.271 112.959 296.188 116.626C296.438 117.876 296.562 119.084 296.562 120.251C296.562 122.668 295.98 125.043 294.812 127.376C292.48 131.793 289.688 135.459 286.438 138.376C283.105 141.293 280.105 142.751 277.438 142.751Z" fill="#003B49"/>
<path d="M218.737 31.0011C215.976 31.0011 213.737 33.2397 213.737 36.0011C213.737 38.7625 215.976 41.0011 218.737 41.0011H219.506C222.268 41.0011 224.506 38.7625 224.506 36.0011C224.506 33.2397 222.268 31.0011 219.506 31.0011H218.737Z" fill="#003B49"/>
<path fill-rule="evenodd" clip-rule="evenodd" d="M116.213 2.77221C114.982 0.300341 111.98 -0.705598 109.509 0.525384C107.037 1.75637 106.031 4.75812 107.262 7.22999C112.722 18.1949 118.884 26.002 128.324 34.2326C129.543 35.2955 130.774 36.3297 132.017 37.3359C126.9 42.204 121.984 47.2561 117.241 52.1305C114.747 54.6933 112.301 57.2072 109.898 59.6192C107.949 61.5757 107.956 64.7415 109.912 66.6902C111.869 68.6389 115.035 68.6326 116.983 66.676C119.564 64.0854 122.121 61.4573 124.682 58.826C129.76 53.6085 134.849 48.3789 140.148 43.4068C151.563 51.2514 163.957 57.0691 177.48 61.4441C188.474 65.0008 199.704 67.4124 210.693 69.7049C217.56 71.1376 224.419 71.714 231.902 69.6833C238.328 67.9396 243.867 62.6792 247.608 57.0969C251.368 51.4861 254.059 44.4402 253.707 38.0736C253.258 29.9744 248.62 23.242 243.121 18.3637C237.595 13.4627 230.684 9.94645 224.468 8.33251C210.575 4.72495 194.096 4.05544 179.873 7.66018C164.906 11.4533 152.197 19.7295 140.91 29.3083C140.439 29.7079 139.969 30.1106 139.502 30.5161C137.945 29.2886 136.41 28.0157 134.896 26.6953C126.382 19.2726 121.055 12.4947 116.213 2.77221ZM180.558 51.9297C168.664 48.0818 157.827 43.094 147.85 36.5352C158.403 27.6501 169.611 20.577 182.329 17.3537C194.677 14.2244 209.428 14.7587 221.955 18.0115C226.675 19.2373 232.167 22.0144 236.485 25.8447C240.828 29.6976 243.473 34.1342 243.722 38.6261C243.913 42.0884 242.34 46.995 239.301 51.5302C236.243 56.0939 232.449 59.1731 229.283 60.0323C223.907 61.4911 218.791 61.1791 212.735 59.9157C201.719 57.6175 190.978 55.3005 180.558 51.9297Z" fill="#003B49"/>
</svg>
