<svg width="24" height="24" viewBox="0 0 24 24" fill="none" xmlns="http://www.w3.org/2000/svg">
<g clip-path="url(#clip0_301_2596)">
<circle cx="11.9998" cy="12" r="1.2" fill="#272D37"/>
<circle cx="7.2" cy="12" r="1.2" fill="#272D37"/>
<circle cx="16.8001" cy="12" r="1.2" fill="#272D37"/>
<mask id="path-4-inside-1_301_2596" fill="white">
<path fill-rule="evenodd" clip-rule="evenodd" d="M21.3266 19.5514C22.9984 17.4892 24 14.8616 24 12C24 5.37258 18.6274 0 12 0C5.37258 0 0 5.37258 0 12C0 18.6274 5.37258 24 12 24C12.086 24 12.1718 23.9991 12.2573 23.9973C12.2824 23.9992 12.3077 24.0001 12.3332 24.0001H20.3332C20.8855 24.0001 21.3332 23.5524 21.3332 23.0001V19.6668C21.3332 19.6278 21.331 19.5893 21.3266 19.5514Z"/>
</mask>
<path d="M21.3266 19.5514L19.773 18.2919C19.4345 18.7095 19.2783 19.2457 19.3397 19.7797L21.3266 19.5514ZM12.2573 23.9973L12.4069 22.0029C12.3431 21.9981 12.2792 21.9964 12.2152 21.9977L12.2573 23.9973ZM22 12C22 14.3865 21.1665 16.5729 19.773 18.2919L22.8802 20.8109C24.8302 18.4054 26 15.3366 26 12H22ZM12 2C17.5228 2 22 6.47715 22 12H26C26 4.26801 19.732 -2 12 -2V2ZM2 12C2 6.47715 6.47715 2 12 2V-2C4.26801 -2 -2 4.26801 -2 12H2ZM12 22C6.47715 22 2 17.5228 2 12H-2C-2 19.732 4.26801 26 12 26V22ZM12.2152 21.9977C12.1437 21.9992 12.072 22 12 22V26C12.1 26 12.1998 25.9989 12.2994 25.9969L12.2152 21.9977ZM12.3332 22.0001C12.3577 22.0001 12.3823 22.0011 12.4069 22.0029L12.1077 25.9917C12.1824 25.9973 12.2576 26.0001 12.3332 26.0001V22.0001ZM20.3332 22.0001H12.3332V26.0001H20.3332V22.0001ZM19.3332 23.0001C19.3332 22.4478 19.7809 22.0001 20.3332 22.0001V26.0001C21.9901 26.0001 23.3332 24.657 23.3332 23.0001H19.3332ZM19.3332 19.6668V23.0001H23.3332V19.6668H19.3332ZM19.3397 19.7797C19.3354 19.742 19.3332 19.7043 19.3332 19.6668H23.3332C23.3332 19.5513 23.3266 19.4365 23.3135 19.3231L19.3397 19.7797Z" fill="#272D37" mask="url(#path-4-inside-1_301_2596)"/>
</g>
<defs>
<clipPath id="clip0_301_2596">
<rect width="24" height="24" fill="white"/>
</clipPath>
</defs>
</svg>
