<svg width="24" height="24" viewBox="0 0 24 24" fill="none" xmlns="http://www.w3.org/2000/svg">
<g clip-path="url(#clip0_303_2931)">
<circle cx="11.9998" cy="11.9998" r="1.2" fill="#272D37"/>
<circle cx="7.2" cy="11.9998" r="1.2" fill="#272D37"/>
<circle cx="16.8001" cy="11.9998" r="1.2" fill="#272D37"/>
<path fill-rule="evenodd" clip-rule="evenodd" d="M23.5741 8.81981C23.8517 9.83266 24 10.899 24 12C24 14.8616 22.9984 17.4892 21.3266 19.5515C21.3309 19.5893 21.3331 19.6277 21.3331 19.6667V23C21.3331 23.5523 20.8854 24 20.3331 24H12.3331C12.308 24 12.2831 23.9991 12.2584 23.9973C12.1725 23.9991 12.0864 24 12 24C5.37258 24 0 18.6274 0 12C0 5.37258 5.37258 0 12 0C13.101 0 14.1673 0.148272 15.1802 0.425937C14.7746 0.972011 14.4596 1.5894 14.2574 2.25586C13.532 2.08846 12.7763 2 12 2C6.47715 2 2 6.47715 2 12C2 17.5228 6.47715 22 12 22C12.0723 22 12.1444 21.9992 12.2162 21.9977C12.2652 21.9967 12.3143 21.9975 12.3632 22H19.3331V19.7134C19.2915 19.2016 19.4485 18.6922 19.7729 18.292C21.1665 16.573 22 14.3865 22 12C22 11.2237 21.9115 10.468 21.7441 9.74256C22.4106 9.54041 23.028 9.22541 23.5741 8.81981Z" fill="#272D37"/>
<circle cx="20" cy="4" r="4" fill="#FE5050"/>
</g>
<defs>
<clipPath id="clip0_303_2931">
<rect width="24" height="24" fill="white"/>
</clipPath>
</defs>
</svg>
