<svg width="54" height="54" viewBox="0 0 54 54" fill="none" xmlns="http://www.w3.org/2000/svg">
<g clip-path="url(#clip0_1380_15584)">
<circle cx="26.4998" cy="17" r="1.2" fill="#C2C2C2"/>
<circle cx="21.7" cy="17" r="1.2" fill="#C2C2C2"/>
<circle cx="31.3001" cy="17" r="1.2" fill="#C2C2C2"/>
<mask id="path-4-inside-1_1380_15584" fill="white">
<path fill-rule="evenodd" clip-rule="evenodd" d="M35.8266 24.5514C37.4984 22.4892 38.5 19.8616 38.5 17C38.5 10.3726 33.1274 5 26.5 5C19.8726 5 14.5 10.3726 14.5 17C14.5 23.6274 19.8726 29 26.5 29C26.586 29 26.6718 28.9991 26.7573 28.9973C26.7824 28.9992 26.8077 29.0001 26.8332 29.0001H34.8332C35.3855 29.0001 35.8332 28.5524 35.8332 28.0001V24.6668C35.8332 24.6278 35.831 24.5893 35.8266 24.5514Z"/>
</mask>
<path d="M35.8266 24.5514L34.273 23.2919C33.9345 23.7095 33.7783 24.2457 33.8397 24.7797L35.8266 24.5514ZM26.7573 28.9973L26.9069 27.0029C26.8431 26.9981 26.7792 26.9964 26.7152 26.9977L26.7573 28.9973ZM36.5 17C36.5 19.3865 35.6665 21.5729 34.273 23.2919L37.3802 25.8109C39.3302 23.4054 40.5 20.3366 40.5 17H36.5ZM26.5 7C32.0228 7 36.5 11.4772 36.5 17H40.5C40.5 9.26801 34.232 3 26.5 3V7ZM16.5 17C16.5 11.4772 20.9772 7 26.5 7V3C18.768 3 12.5 9.26801 12.5 17H16.5ZM26.5 27C20.9772 27 16.5 22.5228 16.5 17H12.5C12.5 24.732 18.768 31 26.5 31V27ZM26.7152 26.9977C26.6437 26.9992 26.572 27 26.5 27V31C26.6 31 26.6998 30.9989 26.7994 30.9969L26.7152 26.9977ZM26.8332 27.0001C26.8577 27.0001 26.8823 27.0011 26.9069 27.0029L26.6077 30.9917C26.6824 30.9973 26.7576 31.0001 26.8332 31.0001V27.0001ZM34.8332 27.0001H26.8332V31.0001H34.8332V27.0001ZM33.8332 28.0001C33.8332 27.4478 34.2809 27.0001 34.8332 27.0001V31.0001C36.4901 31.0001 37.8332 29.657 37.8332 28.0001H33.8332ZM33.8332 24.6668V28.0001H37.8332V24.6668H33.8332ZM33.8397 24.7797C33.8354 24.742 33.8332 24.7043 33.8332 24.6668H37.8332C37.8332 24.5513 37.8266 24.4365 37.8135 24.3231L33.8397 24.7797Z" fill="#C2C2C2" mask="url(#path-4-inside-1_1380_15584)"/>
</g>
<path d="M20.1562 41.707V41.3203H22.0664V40.3945H20.1562V38.8711H19.1133V40.3945H17.168V41.3203H19.1133V41.707C19.1016 43.4004 18.3457 45.1875 16.8984 46.0312L17.5547 46.8516C18.5684 46.2656 19.2715 45.1699 19.6406 43.9043C20.0215 45.0879 20.7305 46.0898 21.75 46.6289L22.3828 45.7969C20.918 45.0293 20.1562 43.3418 20.1562 41.707ZM22.7109 48.4805H23.7656V43.6055H25.0195V48.9961H26.0859V38.4961H25.0195V42.668H23.7656V38.6953H22.7109V48.4805ZM33.0352 39.2578H27.9844V44.2969H28.8516C31.1484 44.3027 32.4551 44.2617 33.9727 44.0156L33.8555 43.1133C32.4316 43.3594 31.207 43.3945 29.1094 43.3828V42.1875H32.7422V41.3086H29.1094V40.1484H33.0352V39.2578ZM29.0039 47.0391C29.0039 48.2754 30.3457 48.9785 32.5781 48.9727C34.7754 48.9785 36.1465 48.2754 36.1523 47.0391C36.1465 45.8145 34.7754 45.1055 32.5781 45.1055C30.3457 45.1055 29.0039 45.8145 29.0039 47.0391ZM30.1172 47.0391C30.1113 46.3711 31.0137 45.9785 32.5781 45.9844C34.1133 45.9785 35.0449 46.3711 35.0391 47.0391C35.0449 47.7246 34.1133 48.1113 32.5781 48.1172C31.0137 48.1113 30.1113 47.7246 30.1172 47.0391ZM34.9805 44.9648H36.0938V38.5078H34.9805V44.9648Z" fill="#C2C2C2"/>
<defs>
<clipPath id="clip0_1380_15584">
<rect width="24" height="24" fill="white" transform="translate(14.5 5)"/>
</clipPath>
</defs>
</svg>
