<svg width="24" height="24" viewBox="0 0 24 24" fill="none" xmlns="http://www.w3.org/2000/svg">
<g clip-path="url(#clip0_311_3565)">
<circle cx="11.9998" cy="12" r="1.2" fill="#272D37"/>
<circle cx="7.2" cy="12" r="1.2" fill="#272D37"/>
<circle cx="16.8001" cy="12" r="1.2" fill="#272D37"/>
<path fill-rule="evenodd" clip-rule="evenodd" d="M16.7114 0.960201C15.2649 0.342124 13.6724 0 12 0C5.37258 0 0 5.37258 0 12C0 18.6274 5.37258 24 12 24C12.086 24 12.1718 23.9991 12.2573 23.9973C12.2824 23.9992 12.3077 24.0001 12.3332 24.0001H20.3332C20.8855 24.0001 21.3332 23.5524 21.3332 23.0001V19.6668C21.3332 19.6278 21.331 19.5893 21.3266 19.5514C22.9984 17.4892 24 14.8616 24 12C24 10.3276 23.6579 8.73508 23.0398 7.28865C22.9609 7.29616 22.8809 7.3 22.8 7.3H21.7V8.4C21.7 8.65982 21.6604 8.91038 21.5868 9.14597C21.8556 10.0504 22 11.0083 22 12C22 14.3865 21.1665 16.5729 19.773 18.2919C19.4485 18.6923 19.2915 19.2017 19.3332 19.7136V22.0001H12.3638C12.3143 21.9975 12.2648 21.9967 12.2152 21.9977C12.1437 21.9992 12.072 22 12 22C6.47715 22 2 17.5228 2 12C2 6.47715 6.47715 2 12 2C12.9917 2 13.9497 2.14435 14.854 2.41319C15.0896 2.33964 15.3402 2.3 15.6 2.3H16.7V1.2C16.7 1.11911 16.7038 1.03912 16.7114 0.960201Z" fill="#272D37"/>
<path d="M15.6001 4.80005H22.8001" stroke="#272D37" stroke-width="2" stroke-linecap="round" stroke-linejoin="round"/>
<path d="M19.2002 1.19995L19.2002 8.39995" stroke="#272D37" stroke-width="2" stroke-linecap="round" stroke-linejoin="round"/>
</g>
<defs>
<clipPath id="clip0_311_3565">
<rect width="24" height="24" fill="white"/>
</clipPath>
</defs>
</svg>
