<svg width="78" height="32" viewBox="0 0 78 32" fill="none" xmlns="http://www.w3.org/2000/svg">
<rect x="0.5" y="0.5" width="77" height="31" rx="15.5" fill="white"/>
<g clip-path="url(#clip0_819_10329)">
<circle cx="20.9996" cy="15.9999" r="0.5" fill="#006981" stroke="#006981" stroke-width="0.8"/>
<circle cx="17.4" cy="15.9999" r="0.5" fill="#006981" stroke="#006981" stroke-width="0.8"/>
<circle cx="24.5997" cy="15.9999" r="0.5" fill="#006981" stroke="#006981" stroke-width="0.8"/>
<mask id="path-5-inside-1_819_10329" fill="white">
<path fill-rule="evenodd" clip-rule="evenodd" d="M27.9569 21.7102C29.2336 20.1566 30 18.1678 30 16C30 11.0294 25.9706 7 21 7C16.0294 7 12 11.0294 12 16C12 20.9706 16.0294 25 21 25C21.1253 25 21.2501 24.9974 21.3742 24.9924C21.4152 24.9975 21.4571 25.0002 21.4996 25.0002H26.9996C27.5519 25.0002 27.9996 24.5524 27.9996 24.0002V22.0002C27.9996 21.8993 27.9846 21.802 27.9569 21.7102Z"/>
</mask>
<path d="M27.9569 21.7102L26.4117 20.4404C25.9877 20.9564 25.8492 21.65 26.0425 22.2892L27.9569 21.7102ZM21.3742 24.9924L21.6225 23.0078C21.513 22.9941 21.4026 22.9895 21.2924 22.994L21.3742 24.9924ZM28 16C28 17.6879 27.4051 19.2315 26.4117 20.4404L29.5021 22.98C31.062 21.0817 32 18.6477 32 16H28ZM21 9C24.866 9 28 12.134 28 16H32C32 9.92487 27.0751 5 21 5V9ZM14 16C14 12.134 17.134 9 21 9V5C14.9249 5 10 9.92487 10 16H14ZM21 23C17.134 23 14 19.866 14 16H10C10 22.0751 14.9249 27 21 27V23ZM21.2924 22.994C21.1956 22.998 21.0981 23 21 23V27C21.1526 27 21.3046 26.9969 21.4559 26.9907L21.2924 22.994ZM21.4996 23.0002C21.5403 23.0002 21.5814 23.0027 21.6225 23.0078L21.1259 26.9769C21.2491 26.9923 21.3739 27.0002 21.4996 27.0002V23.0002ZM26.9996 23.0002H21.4996V27.0002H26.9996V23.0002ZM25.9996 24.0002C25.9996 23.4479 26.4473 23.0002 26.9996 23.0002V27.0002C28.6564 27.0002 29.9996 25.657 29.9996 24.0002H25.9996ZM25.9996 22.0002V24.0002H29.9996V22.0002H25.9996ZM26.0425 22.2892C26.0141 22.1953 25.9996 22.0977 25.9996 22.0002H29.9996C29.9996 21.701 29.9552 21.4086 29.8712 21.1312L26.0425 22.2892Z" fill="#006981" mask="url(#path-5-inside-1_819_10329)"/>
</g>
<path d="M42.8594 13.5156V13.25H45.1875V11.625H42.8438V9.70312H40.9844V11.625H38.625V13.25H40.9844V13.5156C40.9688 15.7266 40.1953 18.0469 38.1719 19.2031L39.2969 20.7031C40.5859 19.9688 41.4375 18.6875 41.9297 17.1875C42.4297 18.5703 43.2812 19.7188 44.5625 20.375L45.6719 18.9062C43.6172 17.8359 42.8594 15.6562 42.8594 13.5156ZM45.8281 22.7812H47.7188V16.3125H48.9219V23.4375H50.8281V9.21875H48.9219V14.6875H47.7188V9.42188H45.8281V22.7812ZM59.9219 10.2031H53.0312V17.1875H54.25C57.2891 17.2031 59.1016 17.1562 61.125 16.8281L60.9219 15.2656C59.125 15.5625 57.5391 15.5938 55.0312 15.5938V14.4531H59.5V12.9062H55.0312V11.7969H59.9219V10.2031ZM54.4219 20.7344C54.4219 22.4531 56.2734 23.4453 59.3125 23.4375C62.3203 23.4453 64.2188 22.4531 64.2344 20.7344C64.2188 19.0312 62.3203 18.0391 59.3125 18.0312C56.2734 18.0391 54.4219 19.0312 54.4219 20.7344ZM56.4062 20.7344C56.4062 19.9766 57.4062 19.5703 59.3125 19.5781C61.1953 19.5703 62.2344 19.9766 62.2344 20.7344C62.2344 21.5234 61.1953 21.9219 59.3125 21.9219C57.4062 21.9219 56.4062 21.5234 56.4062 20.7344ZM62.1562 17.8438H64.1562V9.23438H62.1562V17.8438Z" fill="#006981"/>
<rect x="0.5" y="0.5" width="77" height="31" rx="15.5" stroke="#006981"/>
<defs>
<clipPath id="clip0_819_10329">
<rect width="18" height="18" fill="white" transform="translate(12 7)"/>
</clipPath>
</defs>
</svg>
