<svg width="54" height="54" viewBox="0 0 54 54" fill="none" xmlns="http://www.w3.org/2000/svg">
<circle cx="26.4591" cy="13.4" r="7.4" fill="#006981" stroke="#006981" stroke-width="2"/>
<path fill-rule="evenodd" clip-rule="evenodd" d="M21.1594 19.3584C18.0368 21.0784 15.8395 24.2712 15.5037 28.0007C15.4542 28.5507 15.9067 28.9999 16.4589 28.9999H36.4589C37.0112 28.9999 37.4637 28.5507 37.4142 28.0007C37.0803 24.2929 34.9065 21.1155 31.8128 19.3885C30.477 20.7919 28.5908 21.6666 26.5003 21.6666C24.395 21.6666 22.4968 20.7794 21.1594 19.3584Z" fill="#006981"/>
<path d="M6.26758 39.5391H1.35742V46.3594H6.26758V39.5391ZM2.44727 45.457V40.418H5.16602V45.457H2.44727ZM8.02539 48.9961H9.13867V43.5469H10.8262V42.6094H9.13867V38.4961H8.02539V48.9961ZM20.0254 38.4961H18.9121V49.0195H20.0254V38.4961ZM11.6934 42.9609C11.6934 45.2285 12.8242 46.6582 14.4121 46.6523C15.9707 46.6582 17.1191 45.2285 17.1191 42.9609C17.1191 40.7168 15.9707 39.2871 14.4121 39.2812C12.8242 39.2871 11.6934 40.7168 11.6934 42.9609ZM12.7715 42.9609C12.7656 41.3145 13.4336 40.2832 14.4121 40.2773C15.373 40.2832 16.041 41.3145 16.041 42.9609C16.041 44.6309 15.373 45.6562 14.4121 45.6562C13.4336 45.6562 12.7656 44.6309 12.7715 42.9609ZM30.7832 38.4961H29.7168V48.9961H30.7832V38.4961ZM21.584 45.5273L21.7129 46.4648C23.0723 46.4648 25.252 46.418 26.916 46.0898L26.834 45.2812C26.5176 45.3223 26.1719 45.3633 25.8145 45.3926V40.6992H26.623V39.7852H21.8066V40.6992H22.6152V45.5215C22.2402 45.5273 21.8887 45.5273 21.584 45.5273ZM23.623 45.5039V40.6992H24.7832V45.4629C24.3965 45.4805 24.0039 45.498 23.623 45.5039ZM26.3418 43.4297H27.6543V48.457H28.709V38.7305H27.6543V42.4336H26.3418V43.4297ZM40.7676 38.4961H39.6543V49.0195H40.7676V38.4961ZM32.4355 42.9609C32.4355 45.2285 33.5664 46.6582 35.1543 46.6523C36.7129 46.6582 37.8613 45.2285 37.8613 42.9609C37.8613 40.7168 36.7129 39.2871 35.1543 39.2812C33.5664 39.2871 32.4355 40.7168 32.4355 42.9609ZM33.5137 42.9609C33.5078 41.3145 34.1758 40.2832 35.1543 40.2773C36.1152 40.2832 36.7832 41.3145 36.7832 42.9609C36.7832 44.6309 36.1152 45.6562 35.1543 45.6562C34.1758 45.6562 33.5078 44.6309 33.5137 42.9609ZM46.3105 41.5898V40.4766H48.7012V39.5508H42.7832V40.4766H45.1855V41.5898C45.1738 43.4004 44.002 45.3691 42.4199 46.1133L43.0645 46.9922C44.2891 46.3945 45.2734 45.1172 45.7598 43.6172C46.2461 45.0176 47.2305 46.1777 48.4668 46.7227L49.0762 45.8555C47.459 45.1641 46.3047 43.3477 46.3105 41.5898ZM50.0254 48.9961H51.1387V38.4961H50.0254V48.9961Z" fill="#006981"/>
</svg>
