<svg width="54" height="54" viewBox="0 0 54 54" fill="none" xmlns="http://www.w3.org/2000/svg">
<path d="M20.1562 41.707V41.3203H22.0664V40.3945H20.1562V38.8711H19.1133V40.3945H17.168V41.3203H19.1133V41.707C19.1016 43.4004 18.3457 45.1875 16.8984 46.0312L17.5547 46.8516C18.5684 46.2656 19.2715 45.1699 19.6406 43.9043C20.0215 45.0879 20.7305 46.0898 21.75 46.6289L22.3828 45.7969C20.918 45.0293 20.1562 43.3418 20.1562 41.707ZM22.7109 48.4805H23.7656V43.6055H25.0195V48.9961H26.0859V38.4961H25.0195V42.668H23.7656V38.6953H22.7109V48.4805ZM33.0352 39.2578H27.9844V44.2969H28.8516C31.1484 44.3027 32.4551 44.2617 33.9727 44.0156L33.8555 43.1133C32.4316 43.3594 31.207 43.3945 29.1094 43.3828V42.1875H32.7422V41.3086H29.1094V40.1484H33.0352V39.2578ZM29.0039 47.0391C29.0039 48.2754 30.3457 48.9785 32.5781 48.9727C34.7754 48.9785 36.1465 48.2754 36.1523 47.0391C36.1465 45.8145 34.7754 45.1055 32.5781 45.1055C30.3457 45.1055 29.0039 45.8145 29.0039 47.0391ZM30.1172 47.0391C30.1113 46.3711 31.0137 45.9785 32.5781 45.9844C34.1133 45.9785 35.0449 46.3711 35.0391 47.0391C35.0449 47.7246 34.1133 48.1113 32.5781 48.1172C31.0137 48.1113 30.1113 47.7246 30.1172 47.0391ZM34.9805 44.9648H36.0938V38.5078H34.9805V44.9648Z" fill="#006981"/>
<g clip-path="url(#clip0_1380_15587)">
<mask id="path-2-inside-1_1380_15587" fill="white">
<path fill-rule="evenodd" clip-rule="evenodd" d="M36.3266 24.5514C37.9984 22.4892 39 19.8616 39 17C39 10.3726 33.6274 5 27 5C20.3726 5 15 10.3726 15 17C15 23.6274 20.3726 29 27 29C27.086 29 27.1718 28.9991 27.2573 28.9973C27.2824 28.9992 27.3077 29.0001 27.3332 29.0001H35.3332C35.8855 29.0001 36.3332 28.5524 36.3332 28.0001V24.6668C36.3332 24.6278 36.331 24.5893 36.3266 24.5514Z"/>
</mask>
<path fill-rule="evenodd" clip-rule="evenodd" d="M36.3266 24.5514C37.9984 22.4892 39 19.8616 39 17C39 10.3726 33.6274 5 27 5C20.3726 5 15 10.3726 15 17C15 23.6274 20.3726 29 27 29C27.086 29 27.1718 28.9991 27.2573 28.9973C27.2824 28.9992 27.3077 29.0001 27.3332 29.0001H35.3332C35.8855 29.0001 36.3332 28.5524 36.3332 28.0001V24.6668C36.3332 24.6278 36.331 24.5893 36.3266 24.5514Z" fill="#006981"/>
<path d="M36.3266 24.5514L34.773 23.2919C34.4345 23.7095 34.2783 24.2457 34.3397 24.7797L36.3266 24.5514ZM27.2573 28.9973L27.4069 27.0029C27.3431 26.9981 27.2792 26.9964 27.2152 26.9977L27.2573 28.9973ZM37 17C37 19.3865 36.1665 21.5729 34.773 23.2919L37.8802 25.8109C39.8302 23.4054 41 20.3366 41 17H37ZM27 7C32.5228 7 37 11.4772 37 17H41C41 9.26801 34.732 3 27 3V7ZM17 17C17 11.4772 21.4772 7 27 7V3C19.268 3 13 9.26801 13 17H17ZM27 27C21.4772 27 17 22.5228 17 17H13C13 24.732 19.268 31 27 31V27ZM27.2152 26.9977C27.1437 26.9992 27.072 27 27 27V31C27.1 31 27.1998 30.9989 27.2994 30.9969L27.2152 26.9977ZM27.3332 27.0001C27.3577 27.0001 27.3823 27.0011 27.4069 27.0029L27.1077 30.9917C27.1824 30.9973 27.2576 31.0001 27.3332 31.0001V27.0001ZM35.3332 27.0001H27.3332V31.0001H35.3332V27.0001ZM34.3332 28.0001C34.3332 27.4478 34.7809 27.0001 35.3332 27.0001V31.0001C36.9901 31.0001 38.3332 29.657 38.3332 28.0001H34.3332ZM34.3332 24.6668V28.0001H38.3332V24.6668H34.3332ZM34.3397 24.7797C34.3354 24.742 34.3332 24.7043 34.3332 24.6668H38.3332C38.3332 24.5513 38.3266 24.4365 38.3135 24.3231L34.3397 24.7797Z" fill="#006981" mask="url(#path-2-inside-1_1380_15587)"/>
<circle cx="26.9998" cy="17" r="1.2" fill="white"/>
<circle cx="22.2" cy="17" r="1.2" fill="white"/>
<circle cx="31.8001" cy="17" r="1.2" fill="white"/>
</g>
<defs>
<clipPath id="clip0_1380_15587">
<rect width="24" height="24" fill="white" transform="translate(15 5)"/>
</clipPath>
</defs>
</svg>
