<svg width="54" height="54" viewBox="0 0 54 54" fill="none" xmlns="http://www.w3.org/2000/svg">
<g clip-path="url(#clip0_1380_15485)">
<path fill-rule="evenodd" clip-rule="evenodd" d="M22.9921 5.0535C23.5444 5.0535 23.9921 5.50121 23.9921 6.0535V10.9006C25.0435 11.3029 25.7901 12.3214 25.7901 13.5143C25.7901 14.707 25.0437 15.7254 23.9925 16.1279V24.7042C23.9925 25.4621 23.589 26.5022 22.8623 27.3408C22.0963 28.2246 20.9009 28.9681 19.2624 28.9681C17.6238 28.9681 16.4284 28.2246 15.6624 27.3408C14.9357 26.5022 14.5322 25.4621 14.5322 24.7042V20.7492C14.5322 19.7693 15.7171 19.2785 16.41 19.9714L18.5707 22.132C18.9612 22.5226 18.9612 23.1557 18.5707 23.5463C18.1801 23.9368 17.547 23.9368 17.1565 23.5463L16.5322 22.922V24.7042C16.5322 24.8789 16.6883 25.4707 17.1738 26.0309C17.6201 26.5459 18.2898 26.9681 19.2624 26.9681C20.2349 26.9681 20.9046 26.5459 21.3509 26.0309C21.8364 25.4707 21.9925 24.8789 21.9925 24.7042V16.1279C20.9413 15.7254 20.1949 14.707 20.1949 13.5143C20.1949 12.3217 20.9411 11.3034 21.9921 10.9009V6.0535C21.9921 5.50121 22.4399 5.0535 22.9921 5.0535ZM23.7901 13.5143C23.7901 13.9548 23.433 14.3119 22.9925 14.3119C22.552 14.3119 22.1949 13.9548 22.1949 13.5143C22.1949 13.0738 22.552 12.7167 22.9925 12.7167C23.433 12.7167 23.7901 13.0738 23.7901 13.5143Z" fill="#006981"/>
<path fill-rule="evenodd" clip-rule="evenodd" d="M38.5002 15.1709C38.5002 18.2467 36.7947 21.012 35.2023 22.9236L37.8131 28.1219C38.058 28.6096 37.5776 29.1445 37.0665 28.9531L32.7106 27.3218C32.575 27.271 32.4255 27.271 32.2898 27.3218L27.9491 28.9474C27.4361 29.1395 26.9551 28.6002 27.2044 28.1124L29.8345 22.9672C28.2318 21.0542 26.5002 18.2701 26.5002 15.1709C26.5002 10.5227 30.3951 6.58354 31.9087 5.22829C32.2501 4.9226 32.7503 4.9226 33.0917 5.22829C34.6053 6.58354 38.5002 10.5227 38.5002 15.1709ZM32.5002 12C33.0525 12 33.5002 11.5523 33.5002 11C33.5002 10.4477 33.0525 10 32.5002 10C31.9479 10 31.5002 10.4477 31.5002 11C31.5002 11.5523 31.9479 12 32.5002 12Z" fill="#006981"/>
</g>
<path d="M8.99219 39.2812C7.42773 39.2871 6.32031 40.7168 6.33203 42.9609C6.32031 45.2285 7.42773 46.6582 8.99219 46.6523C10.457 46.6582 11.5176 45.3867 11.6406 43.3359H13.7969V49.0195H14.8984V38.4961H13.7969V42.4336H11.6289C11.459 40.4941 10.4219 39.2871 8.99219 39.2812ZM7.38672 42.9609C7.39258 41.3145 8.04297 40.2832 8.99219 40.2773C9.94141 40.2832 10.5918 41.3145 10.5977 42.9609C10.5918 44.6309 9.94141 45.6562 8.99219 45.6562C8.04297 45.6562 7.39258 44.6309 7.38672 42.9609ZM20.1836 40.4297V40.1484H22.4453V39.2461H16.7617V40.1484H19.0703V40.4414C19.0645 41.9004 18.0742 43.2539 16.4336 43.793L17.0078 44.6836C18.2676 44.2441 19.1875 43.3359 19.6445 42.1875C20.1074 43.1836 20.9805 43.9746 22.1758 44.3555L22.7031 43.4883C21.1094 42.9844 20.1777 41.7656 20.1836 40.4297ZM17.8516 47.0039C17.8516 48.252 19.1934 48.9785 21.3789 48.9727C23.541 48.9785 24.8594 48.252 24.8594 47.0039C24.8594 45.7734 23.541 45.0527 21.3789 45.0586C19.1934 45.0527 17.8516 45.7734 17.8516 47.0039ZM18.9648 47.0039C18.959 46.3184 19.8613 45.9316 21.3789 45.9375C22.8848 45.9316 23.7754 46.3184 23.7695 47.0039C23.7754 47.707 22.8848 48.0996 21.3789 48.0938C19.8613 48.0996 18.959 47.707 18.9648 47.0039ZM23.6523 44.8008H24.7656V42.0117H26.2891V41.0977H24.7656V38.4961H23.6523V44.8008ZM32.7344 39.293H27.4375V40.207H31.6387C31.627 40.8691 31.5918 41.7188 31.3633 42.8789L32.4648 42.9844C32.7227 41.625 32.7227 40.582 32.7344 39.8789V39.293ZM26.8047 43.8867L26.9102 44.7891C28.7617 44.7832 31.2695 44.7422 33.4609 44.3555L33.3906 43.5469C32.3359 43.6992 31.1758 43.7812 30.0508 43.8281V41.6484H28.9492V43.8633C28.1816 43.8809 27.4492 43.8867 26.8047 43.8867ZM28.3984 48.7734H35.5352V47.8711H29.5117V45.668H28.3984V48.7734ZM34.0586 46.3828H35.1953V42.7734H36.6367V41.8359H35.1953V38.4961H34.0586V46.3828ZM45.9766 38.4961H44.8633V49.0195H45.9766V38.4961ZM37.8438 40.3477H41.6289V42.3867H37.8555V46.5H38.7461C40.6035 46.4941 42.1855 46.4238 44.043 46.1133L43.9375 45.1992C42.1797 45.4863 40.6973 45.5684 38.9922 45.5742V43.2773H42.7656V39.4453H37.8438V40.3477Z" fill="#006981"/>
<defs>
<clipPath id="clip0_1380_15485">
<rect width="24" height="24" fill="white" transform="translate(14.5 5)"/>
</clipPath>
</defs>
</svg>
