<svg width="54" height="54" viewBox="0 0 54 54" fill="none" xmlns="http://www.w3.org/2000/svg">
<g clip-path="url(#clip0_1380_15482)">
<path d="M15.6464 16.8536L26.1464 6.35355C26.3417 6.15829 26.6583 6.15829 26.8536 6.35355L37.3536 16.8536C37.4473 16.9473 37.5 17.0745 37.5 17.2071V27.5C37.5 27.7761 37.2761 28 37 28H29.4444C29.1683 28 28.9444 27.7761 28.9444 27.5V19.9444C28.9444 19.6683 28.7206 19.4444 28.4444 19.4444H24.5556C24.2794 19.4444 24.0556 19.6683 24.0556 19.9444V27.5C24.0556 27.7761 23.8317 28 23.5556 28H16C15.7239 28 15.5 27.7761 15.5 27.5V17.2071C15.5 17.0745 15.5527 16.9473 15.6464 16.8536Z" fill="#006981" stroke="#006981" stroke-width="2" stroke-linecap="round" stroke-linejoin="round"/>
</g>
<path d="M30.1035 43.832H22.8496V46.8672H30.1035V43.832ZM21.7012 43.1172H31.2754V42.2383H27.0449V41.5234C28.9082 41.4473 29.9336 40.9492 29.9277 40.0469C29.9336 39.0684 28.6973 38.5645 26.4824 38.5586C24.2793 38.5645 23.0312 39.0684 23.0371 40.0469C23.0312 40.9492 24.0742 41.4473 25.9316 41.5234V42.2383H21.7012V43.1172ZM22.1934 38.1836H30.7363V37.3281H27.0449V36.3555H25.9316V37.3281H22.1934V38.1836ZM23.9512 46.0117V44.6875H29.0254V46.0117H23.9512ZM24.2207 40.0469C24.2148 39.5664 25.0176 39.332 26.4824 39.3203C27.959 39.332 28.7441 39.5664 28.7441 40.0469C28.7441 40.5215 27.959 40.7734 26.4824 40.7734C25.0176 40.7734 24.2148 40.5215 24.2207 40.0469Z" fill="#006981"/>
<defs>
<clipPath id="clip0_1380_15482">
<rect width="24" height="24" fill="white" transform="translate(14.5 5)"/>
</clipPath>
</defs>
</svg>
