<svg width="24" height="24" viewBox="0 0 24 24" fill="none" xmlns="http://www.w3.org/2000/svg">
<mask id="path-1-inside-1_320_2423" fill="white">
<path fill-rule="evenodd" clip-rule="evenodd" d="M19.7497 18.3205C21.1563 16.5978 22 14.3974 22 12C22 6.47715 17.5228 2 12 2C6.47715 2 2 6.47715 2 12C2 17.5228 6.47715 22 12 22C12.1129 22 12.2253 21.9981 12.3373 21.9944C12.3724 21.9982 12.4081 22.0001 12.4442 22.0001H18.7775C19.3298 22.0001 19.7775 21.5524 19.7775 21.0001V18.5556C19.7775 18.4746 19.7679 18.3959 19.7497 18.3205Z"/>
</mask>
<path d="M19.7497 18.3205L18.2005 17.0555C17.8051 17.5398 17.6589 18.1812 17.8054 18.7891L19.7497 18.3205ZM12.3373 21.9944L12.5487 20.0056C12.4565 19.9958 12.3637 19.9924 12.271 19.9955L12.3373 21.9944ZM20 12C20 13.9198 19.3263 15.6769 18.2005 17.0555L21.2988 19.5854C22.9864 17.5188 24 14.8751 24 12H20ZM12 4C16.4183 4 20 7.58172 20 12H24C24 5.37258 18.6274 0 12 0V4ZM4 12C4 7.58172 7.58172 4 12 4V0C5.37258 0 0 5.37258 0 12H4ZM12 20C7.58172 20 4 16.4183 4 12H0C0 18.6274 5.37258 24 12 24V20ZM12.271 19.9955C12.1811 19.9985 12.0908 20 12 20V24C12.135 24 12.2695 23.9978 12.4035 23.9933L12.271 19.9955ZM12.4442 20.0001C12.4788 20.0001 12.5137 20.0019 12.5487 20.0056L12.1258 23.9832C12.2311 23.9944 12.3373 24.0001 12.4442 24.0001V20.0001ZM18.7775 20.0001H12.4442V24.0001H18.7775V20.0001ZM17.7775 21.0001C17.7775 20.4478 18.2252 20.0001 18.7775 20.0001V24.0001C20.4344 24.0001 21.7775 22.6569 21.7775 21.0001H17.7775ZM17.7775 18.5556V21.0001H21.7775V18.5556H17.7775ZM17.8054 18.7891C17.7869 18.7123 17.7775 18.6337 17.7775 18.5556H21.7775C21.7775 18.3155 21.7489 18.0795 21.694 17.8518L17.8054 18.7891Z" fill="#979797" mask="url(#path-1-inside-1_320_2423)"/>
</svg>
