<svg width="90" height="48" viewBox="0 0 90 48" fill="none" xmlns="http://www.w3.org/2000/svg">
<rect width="90" height="48" rx="8" fill="#006981"/>
<path d="M30.7344 23.6719H17.7656V25.2812H23.25V26.3281C20.7266 26.5078 19.25 27.3984 19.25 28.875C19.25 30.5234 21.1172 31.4453 24.2344 31.4375C27.3047 31.4453 29.1719 30.5234 29.1875 28.875C29.1719 27.4062 27.7031 26.5156 25.2344 26.3359V25.2812H30.7344V23.6719ZM18.3438 21.5781L19 23.1406C21.6953 22.8906 23.4844 21.8672 24.2344 20.4922C24.9922 21.875 26.7969 22.8828 29.4844 23.1406L30.1875 21.5781C27.4844 21.3438 26.0391 20.3828 25.6953 19.3906H29.5625V17.8281H18.9531V19.3906H22.7891C22.4297 20.375 20.9766 21.3438 18.3438 21.5781ZM21.2812 28.875C21.2734 28.1562 22.2656 27.8125 24.2344 27.7969C26.1641 27.8125 27.1797 28.1562 27.1875 28.875C27.1797 29.5625 26.1641 29.9375 24.2344 29.9375C22.2656 29.9375 21.2734 29.5625 21.2812 28.875ZM44.5625 24.2656H39.0625V23.0625H42.9062V17.5625H40.9219V18.8594H35.2188V17.5625H33.25V23.0625H37.0625V24.2656H31.5938V25.875H44.5625V24.2656ZM33.0312 28.4219H41V31.4375H42.9844V26.8438H33.0312V28.4219ZM35.2188 21.5V20.3281H40.9219V21.5H35.2188ZM56.7969 17.2344H54.7969V26.8906H56.7969V22.9375H58.6094V21.2969H56.7969V17.2344ZM45.2656 25.0625L45.4688 26.6094C47.9766 26.6094 51.2734 26.5781 54.2812 26.0469L54.1406 24.6719C53.0469 24.8125 51.875 24.8984 50.7031 24.9609V24.2266C52.2266 24.0078 53.1797 23.2578 53.1875 22.1719C53.1797 20.8516 51.7969 20.0391 49.7031 20.0469C47.5938 20.0391 46.2109 20.8516 46.2188 22.1719C46.2109 23.2578 47.1719 24.0156 48.7188 24.2344V25.0312C47.4844 25.0625 46.3047 25.0625 45.2656 25.0625ZM45.6406 19.7188H53.7812V18.2656H50.7031V17.1094H48.7188V18.2656H45.6406V19.7188ZM47.0781 29H54.7969V31.4375H56.7969V27.4688H47.0781V29ZM48.125 22.1719C48.1172 21.6172 48.6875 21.375 49.7031 21.375C50.7031 21.375 51.2734 21.6172 51.2812 22.1719C51.2734 22.6875 50.7031 22.9922 49.7031 22.9844C48.6875 22.9922 48.1172 22.6875 48.125 22.1719ZM71.1562 17.2344H69.1562V27.4531H71.1562V17.2344ZM59.4688 21.7188C59.4688 23.8359 61.1719 25.3281 63.3594 25.3281C65.5391 25.3281 67.2422 23.8359 67.25 21.7188C67.2422 19.6328 65.5391 18.1328 63.3594 18.1406C61.1719 18.1328 59.4688 19.6328 59.4688 21.7188ZM61.4219 21.7188C61.4062 20.5625 62.2422 19.8672 63.3594 19.875C64.4375 19.8672 65.2734 20.5625 65.2812 21.7188C65.2734 22.9062 64.4375 23.5938 63.3594 23.5938C62.2422 23.5938 61.4062 22.9062 61.4219 21.7188ZM61.625 31.1875H71.5312V29.5938H63.6406V26.4219H61.625V31.1875Z" fill="white"/>
</svg>
