<svg width="167" height="122" viewBox="0 0 167 122" fill="none" xmlns="http://www.w3.org/2000/svg">
<path d="M21.3312 108.421C19.4863 108.421 18.1821 107.657 17.4187 106.131C16.7189 104.604 15.6057 100.66 14.0789 94.2979C13.1246 90.4173 12.393 88.4769 11.8841 88.4769C11.1207 88.4769 10.1664 89.781 9.02131 92.3894C7.81262 95.0613 7.04919 97.5423 6.73111 99.8325C6.28579 103.077 5.64962 105.145 4.8226 106.035C4.0592 106.989 2.9141 107.021 1.38729 106.131C0.941975 105.876 0.6557 104.508 0.528463 102.027C0.401229 99.5462 0.401229 94.1706 0.528463 85.9004C0.337613 80.4294 0.242188 76.1035 0.242188 72.9226C0.242188 68.8511 0.369421 66.6881 0.623889 66.4337C1.26005 65.6703 1.83261 65.2886 2.34154 65.2886C3.35941 65.2886 4.28186 66.5609 5.10888 69.1056C5.36334 70.8869 5.586 73.2725 5.77685 76.2625C5.90409 78.171 6.06313 81.0337 6.25398 84.8508C6.63568 84.5326 7.39908 83.8965 8.54419 82.9423C11.9159 80.0795 14.8104 80.2703 17.2279 83.5148C19.3272 86.314 20.9495 90.8307 22.0946 97.0652C22.4127 98.8464 22.9534 100.628 23.7168 102.409C24.2258 103.3 24.4802 104.158 24.4802 104.985C24.4802 105.494 24.3848 106.003 24.1939 106.512C23.6214 107.785 22.6671 108.421 21.3312 108.421ZM33.9273 108.421C32.4641 108.421 31.5417 107.594 31.16 105.94C30.7783 104.286 30.5556 100.564 30.492 94.775C30.492 94.1388 30.492 93.5345 30.492 92.9619C30.492 86.6638 30.8101 83.1013 31.4463 82.2743C32.1461 81.4473 32.9095 81.0337 33.7365 81.0337C33.8637 81.0337 33.9591 81.0337 34.0227 81.0337C34.977 81.161 35.5495 81.7336 35.7404 82.7514C36.1221 84.6599 36.4084 88.8268 36.5992 95.2521C36.7265 97.924 36.7901 100.119 36.7901 101.836C36.7901 103.809 36.7265 105.208 36.5992 106.035C36.2811 107.626 35.3905 108.421 33.9273 108.421ZM45.5692 73.1134C46.1417 72.6681 46.6189 72.4455 47.0006 72.4455C49.0999 72.4455 49.5771 77.0895 48.432 86.3776C48.9409 86.4412 49.7679 86.5048 50.913 86.5684C52.0581 86.5684 53.1396 86.6002 54.1575 86.6638C55.1117 86.7274 56.0978 86.8229 57.1157 86.9501C58.1335 87.0137 58.9287 87.1728 59.5013 87.4272C60.1374 87.6181 60.4874 87.9044 60.551 88.2861C60.8691 88.6678 61.0281 89.0495 61.0281 89.4312C61.0281 90.0037 60.6782 90.5127 59.9784 90.958C58.8969 91.6578 56.9566 92.1667 54.1575 92.4848C53.0124 92.5484 51.3265 92.7075 49.0999 92.9619C49.4816 96.0791 50.245 98.9419 51.3901 101.55C51.8991 102.568 52.408 103.172 52.9169 103.363C53.4895 103.554 54.6982 103.586 56.5431 103.459C57.6882 103.395 58.547 103.395 59.1196 103.459C59.7557 103.459 60.1693 103.554 60.3601 103.745C60.6146 103.936 60.7737 104.254 60.8372 104.699C61.0281 105.717 60.5191 106.799 59.3104 107.944C58.1017 109.152 56.7658 109.916 55.3026 110.234C54.6028 110.361 53.9348 110.425 53.2986 110.425C51.2629 110.425 49.5135 109.757 48.0503 108.421C46.0782 106.703 44.5514 103.681 43.4698 99.3554C42.7064 96.3654 42.3247 92.9301 42.3247 89.0495C42.3247 87.3954 42.3883 85.646 42.5156 83.8011C43.0245 77.7575 44.0424 74.195 45.5692 73.1134ZM78.0138 80.2703C79.4772 80.2703 80.5903 80.4294 81.3537 80.7475C82.1171 81.1292 83.1034 81.988 84.3119 83.324C84.9478 84.0238 85.9341 85.0416 87.27 86.3776C87.4609 86.0595 87.8747 85.4551 88.5106 84.5645C89.2106 83.483 90.3557 82.656 91.9459 82.0834C93.6002 81.5109 95.127 81.3519 96.5263 81.6063C97.9897 81.9244 99.7074 83.0377 101.679 84.9462C103.715 86.8547 105.051 88.6996 105.687 90.4808C106.514 92.4529 107.277 95.5384 107.977 99.7371C108.55 102.918 108.836 105.113 108.836 106.321C108.836 106.767 108.804 107.085 108.741 107.276C108.55 108.039 107.914 108.58 106.832 108.898C104.224 109.661 102.411 107.212 101.393 101.55C100.693 97.3515 100.185 94.775 99.8662 93.8207C99.357 92.2939 98.4669 90.9261 97.1943 89.7174C95.9217 88.4451 94.9361 87.968 94.2361 88.2861C93.3452 88.6042 92.6459 89.9719 92.1367 92.3894C91.5642 94.8068 91.2779 97.7332 91.2779 101.168C91.2779 104.477 91.055 106.64 90.6099 107.657C90.1007 108.675 89.1152 109.184 87.6517 109.184C86.57 109.184 85.7432 108.707 85.1707 107.753C84.6615 106.799 84.2485 105.049 83.9302 102.504C83.4851 99.5781 82.7217 96.429 81.64 93.0573C80.6223 89.7493 79.7948 87.8089 79.1589 87.2364C77.5046 85.9004 75.978 86.9501 74.5785 90.3854C73.497 93.0573 72.829 96.5881 72.5746 100.978C72.3201 104.222 72.0974 106.226 71.9066 106.989C71.7157 107.689 71.2386 108.071 70.4752 108.135C69.3301 108.325 68.4713 107.848 67.8987 106.703C67.3262 105.622 66.9126 103.522 66.6582 100.405C66.5309 99.3236 66.4673 98.3057 66.4673 97.3515C66.4673 91.6895 68.2168 87.0137 71.7157 83.324C72.9881 81.988 74.0059 81.1292 74.7693 80.7475C75.4691 80.4294 76.5504 80.2703 78.0138 80.2703ZM132.025 102.123C132.025 100.469 131.77 99.0691 131.261 97.924C130.752 96.5881 129.989 95.9201 128.971 95.9201C127.826 95.9201 126.362 96.7153 124.581 98.3057C123.5 99.3236 122.768 100.151 122.387 100.787C122.132 101.296 122.005 101.932 122.005 102.695C122.005 102.823 122.005 102.95 122.005 103.077C122.132 104.858 122.705 105.972 123.723 106.417C124.041 106.544 124.423 106.608 124.868 106.608C125.759 106.608 126.935 106.321 128.398 105.749C129.925 105.176 130.911 104.667 131.357 104.222C131.802 103.777 132.025 103.077 132.025 102.123ZM134.887 110.329C134.506 110.711 133.106 111.252 130.689 111.952C128.271 112.715 126.394 113.097 125.058 113.097C122.323 113.097 120.064 112.142 118.283 110.234C116.502 108.389 115.611 106.067 115.611 103.268C115.611 100.151 116.915 97.2242 119.524 94.4887C122.196 91.7532 125.058 90.3854 128.112 90.3854C129.003 90.3854 129.607 90.3218 129.925 90.1946C130.243 90.0673 130.339 89.8129 130.211 89.4312C130.084 89.0495 129.734 88.3815 129.162 87.4272C128.335 86.2821 127.19 85.7096 125.726 85.7096C124.327 85.7732 123.022 86.4094 121.814 87.6181C119.842 89.8447 118.411 90.2264 117.52 88.7632C117.075 88.0634 117.043 87.141 117.424 85.9959C117.743 84.8508 118.474 83.7057 119.619 82.5605C120.573 81.6063 121.655 81.0019 122.864 80.7475C123.69 80.5566 124.677 80.4612 125.822 80.4612C126.331 80.4612 126.872 80.4612 127.444 80.4612C130.752 80.7793 133.202 82.1153 134.792 84.4691C136.319 86.7593 137.496 90.3854 138.323 95.3475C138.832 98.0194 139.086 100.151 139.086 101.741C139.086 101.932 139.054 102.123 138.991 102.314C138.927 103.904 138.45 105.463 137.559 106.989C136.796 108.453 135.905 109.566 134.887 110.329ZM159.03 88.1906C158.33 87.5545 157.44 87.0774 156.358 86.7593C155.722 86.5048 155.085 86.3776 154.449 86.3776C153.94 86.3776 153.463 86.4412 153.018 86.5684C151.936 86.8229 151.237 87.4908 150.919 88.5723C150.6 89.6539 150.378 92.5484 150.251 97.256C150.187 98.6556 150.187 99.8325 150.251 100.787C150.251 103.204 150.346 104.445 150.537 104.508C151.364 104.508 152.541 103.904 154.068 102.695C155.531 101.55 156.898 100.119 158.171 98.4011C160.08 95.9201 161.034 93.7571 161.034 91.9122C161.034 90.449 160.366 89.2085 159.03 88.1906ZM152.159 109.948C151.205 109.948 150.632 110.202 150.442 110.711C150.251 111.22 150.155 112.779 150.155 115.387C150.155 117.677 150.092 119.204 149.964 119.967C149.774 120.794 149.36 121.367 148.724 121.685C148.342 121.876 147.961 121.971 147.579 121.971C147.006 121.971 146.466 121.717 145.957 121.208C145.447 120.699 145.098 119.395 144.907 117.295C144.779 115.196 144.716 110.743 144.716 103.936C144.716 95.4111 144.907 89.9719 145.289 87.6181C145.734 85.3279 146.911 83.5148 148.819 82.1788C149.837 81.479 151.364 81.1292 153.4 81.1292C153.845 81.1292 154.354 81.1292 154.927 81.1292C157.726 81.3836 159.984 82.0834 161.702 83.2285C164.183 84.9462 165.773 87.2046 166.473 90.0037C166.664 90.958 166.759 91.8804 166.759 92.7711C166.759 94.616 166.314 96.429 165.423 98.2103C163.642 101.582 161.511 104.381 159.03 106.608C156.485 108.834 154.195 109.948 152.159 109.948Z" fill="#003B49"/>
<path d="M107.348 24.6375C105.24 24.6375 103.531 26.3464 103.531 28.4545C103.531 30.5626 105.24 32.2715 107.348 32.2715H107.934C110.043 32.2715 111.751 30.5626 111.751 28.4545C111.751 26.3464 110.043 24.6375 107.934 24.6375H107.348Z" fill="#003B49"/>
<path fill-rule="evenodd" clip-rule="evenodd" d="M29.0803 3.0875C28.1406 1.20047 25.849 0.432536 23.962 1.37227C22.075 2.312 21.307 4.60355 22.2468 6.49058C26.4153 14.8612 31.1193 20.8211 38.3256 27.1044C39.2563 27.9159 40.196 28.7054 41.1451 29.4735C37.2385 33.1898 33.4856 37.0466 29.8646 40.7677C27.9608 42.7242 26.0934 44.6433 24.2594 46.4846C22.7718 47.9782 22.7767 50.395 24.2703 51.8827C25.7639 53.3703 28.1807 53.3655 29.6683 51.8718C31.6381 49.8942 33.5907 47.8878 35.5456 45.8791C39.4219 41.896 43.3072 37.9038 47.3526 34.1081C56.0667 40.0966 65.5281 44.5379 75.8517 47.8778C84.2443 50.5929 92.8175 52.4339 101.206 54.1841C106.449 55.2778 111.685 55.7178 117.397 54.1676C122.303 52.8364 126.532 48.8207 129.387 44.5591C132.258 40.2758 134.312 34.897 134.043 30.0367C133.701 23.8537 130.16 18.7142 125.962 14.9901C121.744 11.2487 116.467 8.56433 111.722 7.33225C101.116 4.57823 88.5361 4.06713 77.6782 6.81899C66.2529 9.71467 56.5506 16.0327 47.9336 23.3452C47.574 23.6503 47.2158 23.9577 46.8588 24.2672C45.6704 23.3302 44.4986 22.3584 43.3426 21.3505C36.8436 15.6839 32.7766 10.5097 29.0803 3.0875ZM78.2016 40.6144C69.1218 37.6769 60.8485 33.8692 53.2322 28.8623C61.288 22.0793 69.8446 16.6797 79.5537 14.219C88.9795 11.8301 100.24 12.238 109.804 14.7212C113.407 15.657 117.599 17.777 120.896 20.7011C124.212 23.6424 126.231 27.0293 126.421 30.4584C126.567 33.1015 125.366 36.8473 123.046 40.3095C120.711 43.7934 117.815 46.1441 115.398 46.8C111.294 47.9136 107.388 47.6755 102.765 46.711C94.3558 44.9565 86.1558 43.1877 78.2016 40.6144Z" fill="#003B49"/>
</svg>
