    <svg
      width="24"
      height="24"
      viewBox="0 0 24 24"
      fill="none"
      xmlns="http://www.w3.org/2000/svg"
    >
      <g clip-path="url(#clip0_301_2594)">
        <path
          d="M1.14645 11.8536L11.6464 1.35355C11.8417 1.15829 12.1583 1.15829 12.3536 1.35355L22.8536 11.8536C22.9473 11.9473 23 12.0745 23 12.2071V22.5C23 22.7761 22.7761 23 22.5 23H14.9444C14.6683 23 14.4444 22.7761 14.4444 22.5V14.9444C14.4444 14.6683 14.2206 14.4444 13.9444 14.4444H10.0556C9.77941 14.4444 9.55556 14.6683 9.55556 14.9444V22.5C9.55556 22.7761 9.3317 23 9.05555 23H1.5C1.22386 23 1 22.7761 1 22.5V12.2071C1 12.0745 1.05268 11.9473 1.14645 11.8536Z"
          stroke="#272D37"
          stroke-width="2"
          stroke-linecap="round"
          stroke-linejoin="round"
        />
      </g>
      <defs>
        <clipPath id="clip0_301_2594">
          <rect width="24" height="24" fill="white" />
        </clipPath>
      </defs>
    </svg>