<svg width="101" height="100" viewBox="0 0 101 100" fill="none" xmlns="http://www.w3.org/2000/svg">
<circle cx="50.5" cy="50" r="50" fill="#ADB9C7"/>
<circle cx="49.9804" cy="41.7999" r="15.7999" stroke="white" stroke-width="2"/>
<path fill-rule="evenodd" clip-rule="evenodd" d="M38.6472 51.8394C31.3835 55.7377 26.3591 63.2667 26.0008 71.9994C25.9782 72.5512 26.428 73.0003 26.9803 73.0003H72.9801C73.5324 73.0003 73.9823 72.5512 73.9596 71.9994C73.6023 63.2884 68.6019 55.7752 61.3675 51.8686C60.9045 52.3946 60.4055 52.8882 59.8743 53.3455C66.4919 56.6833 71.1939 63.2647 71.8905 71.0003H28.0699C28.7684 63.2451 33.4925 56.6499 40.1366 53.3201C39.6066 52.8615 39.1089 52.3666 38.6472 51.8394Z" fill="white"/>
</svg>
