<svg width="343" height="48" viewBox="0 0 343 48" fill="none" xmlns="http://www.w3.org/2000/svg">
<rect width="343" height="48" rx="8" fill="#D5DDE5"/>
<path d="M158.006 17.3574H156.488V29.7168H158.006V17.3574ZM147.766 26.2852L147.984 27.543C150.206 27.543 153.159 27.5088 155.873 27.0508L155.764 25.916C154.731 26.0527 153.638 26.1416 152.551 26.1895V25.1025C153.938 24.877 154.848 24.0361 154.848 22.8672C154.848 21.4727 153.59 20.5498 151.771 20.543C149.974 20.5498 148.736 21.4727 148.736 22.8672C148.736 24.043 149.646 24.8906 151.033 25.1094V26.2441C149.864 26.2783 148.75 26.2783 147.766 26.2852ZM148.025 19.9824H155.545V18.7793H152.551V17.3984H151.033V18.7793H148.025V19.9824ZM150.186 22.8672C150.172 22.1494 150.835 21.7119 151.771 21.7051C152.735 21.7119 153.392 22.1494 153.385 22.8672C153.392 23.5781 152.735 23.9951 151.771 23.9883C150.835 23.9951 150.172 23.5781 150.186 22.8672ZM170.174 17.3711H168.643V24.5762H166.223V25.6426H168.643V26.7227H170.174V17.3711ZM159.756 22.9219L159.947 24.1387C160.918 24.1387 162.019 24.1318 163.174 24.084V26.3809H164.691V24.002C165.737 23.9268 166.79 23.8174 167.809 23.6465L167.727 22.5527C165.102 22.8877 162.032 22.9082 159.756 22.9219ZM160.699 20.0098C160.699 21.3359 161.957 22.1768 163.789 22.1836C165.587 22.1768 166.852 21.3359 166.865 20.0098C166.852 18.7041 165.587 17.8154 163.789 17.8223C161.957 17.8154 160.699 18.7041 160.699 20.0098ZM161.396 29.4707H170.461V28.2402H162.914V25.8203H161.396V29.4707ZM162.135 20.0098C162.135 19.3398 162.798 18.9365 163.789 18.9434C164.732 18.9365 165.409 19.3398 165.416 20.0098C165.409 20.6797 164.732 21.0693 163.789 21.0762C162.798 21.0693 162.135 20.6797 162.135 20.0098ZM181.59 17.3574H180.072V29.6895H181.59V23.4551H183.422V22.1836H181.59V17.3574ZM171.842 26.3125L172.703 27.4883C176.812 25.4648 178.315 22.2725 178.322 18.6426H172.512V19.9004H176.777C176.477 22.7168 174.85 24.8086 171.842 26.3125ZM194.305 17.3574H192.773V23.9883H194.305V17.3574ZM184.229 20.8027C184.229 22.4912 185.65 23.6807 187.564 23.6738C189.472 23.6807 190.894 22.4912 190.887 20.8027C190.894 19.0869 189.472 17.8975 187.564 17.9043C185.65 17.8975 184.229 19.0869 184.229 20.8027ZM185.719 20.8027C185.712 19.8115 186.484 19.1689 187.564 19.1758C188.624 19.1689 189.396 19.8115 189.396 20.8027C189.396 21.7939 188.624 22.4229 187.564 22.4297C186.484 22.4229 185.712 21.7939 185.719 20.8027ZM186.129 29.5664H194.305V24.5625H192.787V25.834H187.633V24.5625H186.129V29.5664ZM187.633 28.3359V27.0234H192.787V28.3359H187.633Z" fill="white"/>
</svg>
