<svg width="32" height="44" viewBox="0 0 32 44" fill="none" xmlns="http://www.w3.org/2000/svg">
<g clip-path="url(#clip0_705_10309)">
<path d="M31.5 16C31.5 22.2605 28.5573 28.9623 25.0852 34.1208C23.3528 36.6947 21.5026 38.8631 19.8493 40.3818C19.0221 41.1416 18.2536 41.73 17.5822 42.1254C16.8987 42.528 16.367 42.7 16 42.7C15.633 42.7 15.1013 42.528 14.4178 42.1254C13.7464 41.73 12.9779 41.1416 12.1507 40.3818C10.4974 38.8631 8.64722 36.6947 6.91479 34.1208C3.44269 28.9623 0.5 22.2605 0.5 16C0.5 7.43959 7.43959 0.5 16 0.5C24.5604 0.5 31.5 7.43959 31.5 16Z" fill="#006981" stroke="#003B49"/>
<mask id="path-2-inside-1_705_10309" fill="white">
<path fill-rule="evenodd" clip-rule="evenodd" d="M12.0737 6.35547C13.2766 5.88704 14.6236 5.61676 16.095 5.59961C20.6483 5.651 24.4988 8.62835 25.8545 12.7397C22.9035 14.7154 18.7172 13.9795 17.0641 13.2316C15.4248 15.1599 12.2828 15.3741 10.9167 15.2402C11.5725 14.9188 12.556 13.2316 12.9658 12.4281C8.048 12.8298 7.22836 19.6592 9.68728 22.4713C12.1462 25.2834 15.4248 24.48 17.0641 22.873C17.2638 22.6773 17.4392 22.4994 17.5976 22.3387C18.7398 21.1802 19.0029 20.9133 21.1623 21.2661C22.5208 21.4881 24.3145 20.726 25.6094 19.9245C24.0603 23.7227 20.3304 26.3997 15.9752 26.3997C12.1524 26.3997 8.81125 24.3371 7.00395 21.2642C6.46225 20.2425 6.04983 19.0839 5.78285 17.7987C5.64055 17.1137 5.57361 16.4223 5.57813 15.7352C5.68407 11.4848 8.34003 7.86743 12.0737 6.35547Z"/>
</mask>
<path fill-rule="evenodd" clip-rule="evenodd" d="M12.0737 6.35547C13.2766 5.88704 14.6236 5.61676 16.095 5.59961C20.6483 5.651 24.4988 8.62835 25.8545 12.7397C22.9035 14.7154 18.7172 13.9795 17.0641 13.2316C15.4248 15.1599 12.2828 15.3741 10.9167 15.2402C11.5725 14.9188 12.556 13.2316 12.9658 12.4281C8.048 12.8298 7.22836 19.6592 9.68728 22.4713C12.1462 25.2834 15.4248 24.48 17.0641 22.873C17.2638 22.6773 17.4392 22.4994 17.5976 22.3387C18.7398 21.1802 19.0029 20.9133 21.1623 21.2661C22.5208 21.4881 24.3145 20.726 25.6094 19.9245C24.0603 23.7227 20.3304 26.3997 15.9752 26.3997C12.1524 26.3997 8.81125 24.3371 7.00395 21.2642C6.46225 20.2425 6.04983 19.0839 5.78285 17.7987C5.64055 17.1137 5.57361 16.4223 5.57813 15.7352C5.68407 11.4848 8.34003 7.86743 12.0737 6.35547Z" fill="white"/>
<path d="M12.0737 6.35547L11.7108 5.42355L11.6984 5.42858L12.0737 6.35547ZM16.095 5.59961L16.1063 4.59967C16.0986 4.59959 16.091 4.59959 16.0833 4.59968L16.095 5.59961ZM25.8545 12.7397L26.4108 13.5706C26.784 13.3208 26.9448 12.8529 26.8042 12.4265L25.8545 12.7397ZM17.0641 13.2316L17.4763 12.3205C17.0699 12.1367 16.591 12.2441 16.3022 12.5839L17.0641 13.2316ZM10.9167 15.2402L10.4766 14.3423C10.0752 14.539 9.85312 14.9783 9.93272 15.4183C10.0123 15.8582 10.3743 16.1918 10.8192 16.2354L10.9167 15.2402ZM12.9658 12.4281L13.8567 12.8825C14.0214 12.5595 13.9984 12.1727 13.7966 11.8715C13.5948 11.5703 13.2458 11.4019 12.8844 11.4314L12.9658 12.4281ZM9.68728 22.4713L10.4401 21.8131L9.68728 22.4713ZM17.0641 22.873L16.364 22.1589L16.364 22.1589L17.0641 22.873ZM17.5976 22.3387L18.3097 23.0408H18.3097L17.5976 22.3387ZM21.1623 21.2661L21.3235 20.2792L21.1623 21.2661ZM25.6094 19.9245L26.5353 20.3021C26.6989 19.9011 26.5857 19.4404 26.255 19.1608C25.9243 18.8812 25.4513 18.8463 25.083 19.0742L25.6094 19.9245ZM7.00395 21.2642L6.12045 21.7326C6.12734 21.7456 6.13452 21.7584 6.14198 21.7711L7.00395 21.2642ZM5.78285 17.7987L6.76195 17.5953L5.78285 17.7987ZM5.57813 15.7352L4.57844 15.7103C4.57828 15.7164 4.57819 15.7225 4.57815 15.7286L5.57813 15.7352ZM12.4366 7.2873C13.5242 6.86379 14.7519 6.61533 16.1066 6.59954L16.0833 4.59968C14.4954 4.61819 13.0291 4.91029 11.7109 5.42363L12.4366 7.2873ZM16.0837 6.59955C20.1973 6.64597 23.6791 9.33579 24.9048 13.0528L26.8042 12.4265C25.3184 7.92091 21.0992 4.65602 16.1063 4.59967L16.0837 6.59955ZM25.2982 11.9087C24.0492 12.7449 22.4897 13.0353 20.9914 13.0072C19.4891 12.9789 18.1653 12.6322 17.4763 12.3205L16.6519 14.1427C17.616 14.5789 19.2119 14.9741 20.9538 15.0068C22.6997 15.0396 24.7088 14.7101 26.4108 13.5706L25.2982 11.9087ZM16.3022 12.5839C15.6723 13.3248 14.7055 13.7853 13.6552 14.0367C12.6116 14.2864 11.5969 14.3021 11.0143 14.245L10.8192 16.2354C11.6026 16.3122 12.8419 16.2878 14.1207 15.9818C15.3927 15.6774 16.8166 15.0666 17.826 13.8793L16.3022 12.5839ZM11.3569 16.1382C11.7031 15.9685 11.9936 15.6799 12.2052 15.4404C12.4354 15.18 12.6597 14.8751 12.8627 14.5739C13.2694 13.9705 13.6379 13.3114 13.8567 12.8825L12.075 11.9737C11.884 12.3483 11.5558 12.9345 11.2043 13.456C11.0282 13.7172 10.8581 13.9446 10.7066 14.116C10.5365 14.3084 10.4583 14.3513 10.4766 14.3423L11.3569 16.1382ZM12.8844 11.4314C9.86386 11.6782 8.16739 13.9266 7.58853 16.3098C7.02113 18.6458 7.43707 21.4171 8.93449 23.1296L10.4401 21.8131C9.47857 20.7135 9.07487 18.664 9.53202 16.7819C9.97771 14.9469 11.15 13.5798 13.0473 13.4248L12.8844 11.4314ZM8.93449 23.1296C10.3599 24.7597 12.0834 25.3903 13.7207 25.3286C15.3201 25.2683 16.7808 24.5511 17.7641 23.5872L16.364 22.1589C15.7081 22.8019 14.7099 23.2899 13.6454 23.33C12.6189 23.3687 11.4736 22.995 10.4401 21.8131L8.93449 23.1296ZM17.7641 23.5872C17.9707 23.3847 18.1516 23.2011 18.3097 23.0408L16.8855 21.6366C16.7267 21.7976 16.5569 21.9699 16.364 22.1589L17.7641 23.5872ZM18.3097 23.0408C18.9331 22.4085 19.1148 22.2544 19.3288 22.1796C19.5408 22.1054 19.9125 22.0752 21.001 22.253L21.3235 20.2792C20.2527 20.1043 19.4132 20.0311 18.6682 20.2918C17.9253 20.5518 17.4044 21.1103 16.8855 21.6366L18.3097 23.0408ZM21.001 22.253C21.9093 22.4014 22.8764 22.2142 23.7291 21.9267C24.5973 21.6341 25.439 21.206 26.1357 20.7747L25.083 19.0742C24.485 19.4444 23.7823 19.7982 23.0903 20.0315C22.3828 20.27 21.7738 20.3528 21.3235 20.2792L21.001 22.253ZM24.6834 19.5468C23.2826 22.9817 19.9101 25.3997 15.9752 25.3997V27.3997C20.7507 27.3997 24.8381 24.4637 26.5353 20.3021L24.6834 19.5468ZM15.9752 25.3997C12.5212 25.3997 9.50099 23.5373 7.86593 20.7572L6.14198 21.7711C8.12151 25.1369 11.7836 27.3997 15.9752 27.3997V25.3997ZM7.88746 20.7957C7.39402 19.8651 7.01158 18.797 6.76195 17.5953L4.80375 18.0021C5.08809 19.3709 5.53048 20.6199 6.12045 21.7326L7.88746 20.7957ZM6.76195 17.5953C6.63422 16.9805 6.57404 16.3594 6.5781 15.7417L4.57815 15.7286C4.57318 16.4851 4.64688 17.247 4.80376 18.0021L6.76195 17.5953ZM6.57781 15.7601C6.67352 11.9205 9.07262 8.64965 12.4491 7.28235L11.6984 5.42858C7.60744 7.08521 4.69463 11.049 4.57844 15.7103L6.57781 15.7601Z" fill="white" mask="url(#path-2-inside-1_705_10309)"/>
<circle cx="20" cy="9.5998" r="0.8" fill="#006981"/>
</g>
<defs>
<clipPath id="clip0_705_10309">
<rect width="32" height="43.2" fill="white"/>
</clipPath>
</defs>
</svg>
