<svg width="100" height="100" viewBox="0 0 100 100" fill="none" xmlns="http://www.w3.org/2000/svg">
<circle cx="50" cy="50" r="50" fill="#979797"/>
<circle cx="49.4801" cy="41.7999" r="15.7999" stroke="white" stroke-width="2"/>
<path fill-rule="evenodd" clip-rule="evenodd" d="M38.1472 51.8394C30.8835 55.7377 25.8591 63.2667 25.5008 71.9994C25.4782 72.5512 25.928 73.0003 26.4803 73.0003H72.4801C73.0324 73.0003 73.4823 72.5512 73.4596 71.9994C73.1023 63.2884 68.1019 55.7752 60.8675 51.8686C60.4045 52.3946 59.9055 52.8882 59.3743 53.3455C65.9919 56.6833 70.6939 63.2647 71.3905 71.0003H27.5699C28.2684 63.2451 32.9925 56.6499 39.6366 53.3201C39.1066 52.8615 38.6089 52.3666 38.1472 51.8394Z" fill="white"/>
</svg>
