<svg width="40" height="50" viewBox="0 0 40 50" fill="none" xmlns="http://www.w3.org/2000/svg">
<path d="M39.5 20C39.5 25.415 37.2958 32.8279 33.7118 38.8876C31.9223 41.9131 29.8032 44.5764 27.4691 46.4782C25.1354 48.3796 22.6127 49.5 20 49.5C17.3873 49.5 14.8646 48.3796 12.5309 46.4782C10.1968 44.5764 8.07766 41.9131 6.28822 38.8876C2.70418 32.8279 0.5 25.415 0.5 20C0.5 9.23045 9.23045 0.5 20 0.5C30.7696 0.5 39.5 9.23045 39.5 20Z" fill="#006981" stroke="#003B49"/>
<mask id="path-2-inside-1_533_6048" fill="white">
<path fill-rule="evenodd" clip-rule="evenodd" d="M32.318 15.9251C28.6292 18.3948 23.3963 17.475 21.3299 16.5401C19.2807 18.9504 15.3533 19.2183 13.6457 19.0509C14.4654 18.6491 15.6948 16.5401 16.2071 15.5358C10.0598 16.0379 9.03522 24.5746 12.1089 28.0898C15.1825 31.6049 19.2807 30.6006 21.3299 28.5919C21.5795 28.3472 21.7987 28.1248 21.9968 27.9239C23.4246 26.4758 23.7534 26.1423 26.4526 26.5833C28.1507 26.8607 30.3928 25.9082 32.0114 24.9063C30.075 29.6539 25.4126 32.9999 19.9688 32.9999C15.1893 32.9999 11.0122 30.4208 8.75341 26.5783C8.07693 25.3018 7.56186 23.8545 7.22834 22.249C7.05045 21.3926 6.96677 20.5282 6.97244 19.6692C7.10476 14.3622 10.4175 9.8447 15.0764 7.95101C16.5868 7.36062 18.2794 7.02034 20.129 7C25.8161 7.0687 30.6244 10.7891 32.318 15.9251Z"/>
</mask>
<path fill-rule="evenodd" clip-rule="evenodd" d="M32.318 15.9251C28.6292 18.3948 23.3963 17.475 21.3299 16.5401C19.2807 18.9504 15.3533 19.2183 13.6457 19.0509C14.4654 18.6491 15.6948 16.5401 16.2071 15.5358C10.0598 16.0379 9.03522 24.5746 12.1089 28.0898C15.1825 31.6049 19.2807 30.6006 21.3299 28.5919C21.5795 28.3472 21.7987 28.1248 21.9968 27.9239C23.4246 26.4758 23.7534 26.1423 26.4526 26.5833C28.1507 26.8607 30.3928 25.9082 32.0114 24.9063C30.075 29.6539 25.4126 32.9999 19.9688 32.9999C15.1893 32.9999 11.0122 30.4208 8.75341 26.5783C8.07693 25.3018 7.56186 23.8545 7.22834 22.249C7.05045 21.3926 6.96677 20.5282 6.97244 19.6692C7.10476 14.3622 10.4175 9.8447 15.0764 7.95101C16.5868 7.36062 18.2794 7.02034 20.129 7C25.8161 7.0687 30.6244 10.7891 32.318 15.9251Z" fill="white"/>
<path d="M32.318 15.9251L32.8743 16.7561C33.2474 16.5063 33.4083 16.0384 33.2677 15.612L32.318 15.9251ZM21.3299 16.5401L21.7421 15.629C21.3357 15.4452 20.8568 15.5526 20.568 15.8924L21.3299 16.5401ZM13.6457 19.0509L13.2056 18.1529C12.8042 18.3497 12.5821 18.789 12.6617 19.2289C12.7413 19.6688 13.1032 20.0025 13.5482 20.0461L13.6457 19.0509ZM16.2071 15.5358L17.0979 15.9901C17.2626 15.6672 17.2397 15.2803 17.0379 14.9791C16.836 14.6779 16.487 14.5096 16.1257 14.5391L16.2071 15.5358ZM12.1089 28.0898L12.8617 27.4315L12.1089 28.0898ZM21.3299 28.5919L22.0299 29.306L21.3299 28.5919ZM21.9968 27.9239L22.7089 28.626L22.7089 28.626L21.9968 27.9239ZM26.4526 26.5833L26.6139 25.5964L26.4526 26.5833ZM32.0114 24.9063L32.9373 25.2839C33.1009 24.8829 32.9877 24.4223 32.657 24.1426C32.3264 23.863 31.8533 23.8281 31.4851 24.056L32.0114 24.9063ZM8.75341 26.5783L7.86981 27.0466C7.8767 27.0596 7.88387 27.0724 7.89133 27.0851L8.75341 26.5783ZM7.22834 22.249L6.24925 22.4524L7.22834 22.249ZM6.97244 19.6692L5.97275 19.6443C5.9726 19.6504 5.9725 19.6565 5.97246 19.6626L6.97244 19.6692ZM15.0764 7.95101L14.7123 7.01955L14.6999 7.02461L15.0764 7.95101ZM20.129 7L20.1411 6.00007C20.1334 5.99998 20.1257 5.99998 20.118 6.00006L20.129 7ZM31.7616 15.0942C30.1438 16.1774 28.1382 16.5453 26.2343 16.5095C24.3265 16.4736 22.6377 16.0342 21.7421 15.629L20.9177 17.4512C22.0884 17.9809 24.0493 18.4688 26.1967 18.5092C28.3482 18.5496 30.8034 18.1426 32.8743 16.7561L31.7616 15.0942ZM20.568 15.8924C19.7331 16.8744 18.4676 17.4688 17.127 17.7896C15.7931 18.1088 14.4966 18.1295 13.7433 18.0556L13.5482 20.0461C14.5024 20.1396 16.0234 20.1101 17.5924 19.7347C19.1547 19.3608 20.8775 18.6162 22.0917 17.1878L20.568 15.8924ZM14.0858 19.9488C14.473 19.759 14.8097 19.429 15.069 19.1356C15.3469 18.8211 15.6205 18.4497 15.8709 18.0782C16.3723 17.3342 16.8279 16.5194 17.0979 15.9901L15.3163 15.0814C15.074 15.5564 14.6587 16.2983 14.2124 16.9604C13.989 17.2919 13.7695 17.5858 13.5703 17.8112C13.4712 17.9234 13.3855 18.009 13.3148 18.0703C13.2407 18.1346 13.2044 18.1535 13.2056 18.1529L14.0858 19.9488ZM16.1257 14.5391C12.4904 14.836 10.4353 17.5364 9.72838 20.4469C9.0329 23.3102 9.5513 26.684 11.3561 28.748L12.8617 27.4315C11.5928 25.9804 11.0866 23.3283 11.6719 20.9189C12.2456 18.5567 13.7765 16.7376 16.2885 16.5324L16.1257 14.5391ZM11.3561 28.748C13.0888 30.7296 15.1709 31.4858 17.1412 31.4115C19.0736 31.3387 20.8416 30.4708 22.0299 29.306L20.6298 27.8778C19.769 28.7217 18.4634 29.3603 17.0659 29.413C15.7064 29.4642 14.2026 28.965 12.8617 27.4315L11.3561 28.748ZM22.0299 29.306C22.2864 29.0546 22.5112 28.8266 22.7089 28.626L21.2847 27.2219C21.0863 27.4231 20.8726 27.6398 20.6298 27.8778L22.0299 29.306ZM22.7089 28.626C23.475 27.849 23.7446 27.6058 24.0782 27.4891C24.4098 27.3731 24.9329 27.3482 26.2914 27.5702L26.6139 25.5964C25.2732 25.3773 24.2822 25.2988 23.4177 25.6013C22.5551 25.9031 21.9463 26.5508 21.2847 27.2219L22.7089 28.626ZM26.2914 27.5702C27.3694 27.7463 28.5335 27.5253 29.5813 27.1721C30.6444 26.8137 31.6791 26.288 32.5377 25.7565L31.4851 24.056C30.7251 24.5264 29.8294 24.9779 28.9424 25.2769C28.0399 25.5811 27.234 25.6977 26.6139 25.5964L26.2914 27.5702ZM31.0854 24.5286C29.2972 28.9129 24.9923 31.9999 19.9688 31.9999V33.9999C25.8329 33.9999 30.8527 30.3949 32.9373 25.2839L31.0854 24.5286ZM19.9688 31.9999C15.5582 31.9999 11.7021 29.621 9.61548 26.0716L7.89133 27.0851C10.3224 31.2205 14.8204 33.9999 19.9688 33.9999V31.9999ZM9.637 26.1101C9.00874 24.9245 8.52361 23.5676 8.20744 22.0456L6.24925 22.4524C6.6001 24.1414 7.14512 25.6791 7.86981 27.0466L9.637 26.1101ZM8.20744 22.0456C8.04412 21.2594 7.96721 20.4654 7.97242 19.6758L5.97246 19.6626C5.96633 20.591 6.05677 21.5259 6.24925 22.4524L8.20744 22.0456ZM7.97213 19.6942C8.09422 14.7975 11.1506 10.6261 15.4529 8.87741L14.6999 7.02461C9.68433 9.06324 6.11531 13.9268 5.97275 19.6443L7.97213 19.6942ZM15.4405 8.88239C16.835 8.3373 18.4076 8.01899 20.14 7.99994L20.118 6.00006C18.1512 6.02169 16.3387 6.38393 14.7123 7.01963L15.4405 8.88239ZM20.117 7.99993C25.3647 8.06332 29.8046 11.4963 31.3683 16.2383L33.2677 15.612C31.4442 10.0819 26.2675 6.07408 20.1411 6.00007L20.117 7.99993Z" fill="white" mask="url(#path-2-inside-1_533_6048)"/>
<circle cx="25" cy="12" r="1" fill="#006981"/>
</svg>

