<svg width="25" height="25" viewBox="0 0 25 25" fill="none" xmlns="http://www.w3.org/2000/svg">
<path fill-rule="evenodd" clip-rule="evenodd" d="M4.00439 2.28564H15.8046L13.8046 4.28564H4.00439C3.45211 4.28564 3.00439 4.73336 3.00439 5.28564V20.9999C3.00439 21.5522 3.45211 21.9999 4.00439 21.9999H19.7187C20.271 21.9999 20.7187 21.5522 20.7187 20.9999V11.2L22.7187 9.19999V20.9999C22.7187 22.6568 21.3755 23.9999 19.7187 23.9999H4.00439C2.34754 23.9999 1.00439 22.6568 1.00439 20.9999V5.28564C1.00439 3.62879 2.34754 2.28564 4.00439 2.28564Z" fill="#272D37"/>
<path d="M5.54399 18.9082L4.56838 18.9082L5.544 18.9082L5.54399 16.1315C5.54399 15.9989 5.59667 15.8717 5.69044 15.778L19.7006 1.76777C19.8959 1.5725 20.2125 1.5725 20.4078 1.76777L23.1844 4.54441C23.3797 4.73967 23.3797 5.05625 23.1844 5.25151L9.17419 19.2617C9.08042 19.3555 8.95324 19.4082 8.82064 19.4082L8.82063 20.4082L8.82063 19.4082L6.04399 19.4082C5.76785 19.4082 5.54399 19.1843 5.54399 18.9082Z" stroke="#272D37" stroke-width="2"/>
<path d="M16.7886 4.89795L20.0545 8.16385" stroke="#272D37" stroke-width="2" stroke-linecap="round" stroke-linejoin="round"/>
</svg>
