<svg width="158" height="64" viewBox="0 0 158 64" fill="none" xmlns="http://www.w3.org/2000/svg">
<g filter="url(#filter0_d_331_7529)">
<rect x="14" y="12" width="126" height="32" rx="16" fill="white" shape-rendering="crispEdges"/>
<path d="M42.6875 21.2188H40.7656V26.7188H39.4375V21.4531H37.5625V34.75H39.4375V28.3281H40.7656V35.4375H42.6875V21.2188ZM31 31.9688H31.9688C33.4375 31.9766 35.0625 31.875 36.9688 31.5469L36.7656 29.8281C35.3984 30.0938 34.1406 30.1953 33 30.2266V22.7969H31V31.9688ZM59.9219 21.2188H57.9375V24.6875H55.7188V26.2969H57.9375V29.6562H59.9219V21.2188ZM47.8438 28.0938L48.875 29.6719C50.5625 29.0938 51.7031 27.9297 52.3281 26.4844C52.9453 27.7578 54.0312 28.7891 55.5938 29.2969L56.5781 27.7344C54.3672 27 53.3516 25.3281 53.3125 23.6719H56.1406V22.0781H48.4219V23.6719H51.2812C51.2344 25.4531 50.1719 27.3125 47.8438 28.0938ZM50.1719 32.7188C50.1719 34.4453 52.0312 35.4531 55.0625 35.4531C58.1016 35.4531 59.9609 34.4453 59.9688 32.7188C59.9609 30.9922 58.1016 29.9766 55.0625 29.9688C52.0312 29.9766 50.1719 30.9922 50.1719 32.7188ZM52.1562 32.7188C52.1562 31.8984 53.1797 31.4922 55.0625 31.5C56.9531 31.4922 57.9766 31.8984 57.9844 32.7188C57.9766 33.5312 56.9531 33.9375 55.0625 33.9375C53.1797 33.9375 52.1562 33.5312 52.1562 32.7188ZM74.7812 32.1562H69.2344V29.5312H73.3281V22.125H71.3438V24.3281H65.1406V22.125H63.1406V29.5312H67.25V32.1562H61.7656V33.7812H74.7812V32.1562ZM65.1406 27.9375V25.9219H71.3438V27.9375H65.1406ZM86.8281 22.3281V21.6406H84.7344V22.3281C84.7266 24.0078 83.0156 25.8594 79.7812 26.2656L80.5781 27.875C83.0312 27.5156 84.8438 26.3594 85.7812 24.8281C86.7109 26.3672 88.5312 27.5156 91.0156 27.875L91.7969 26.2656C88.5391 25.8594 86.8203 24.0078 86.8281 22.3281ZM79.2812 30.5781H84.75V35.4375H86.7188V30.5781H92.25V28.9531H79.2812V30.5781ZM105.094 21.2188H103.109V24.6875H100.891V26.2969H103.109V29.6562H105.094V21.2188ZM93.0156 28.0938L94.0469 29.6719C95.7344 29.0938 96.875 27.9297 97.5 26.4844C98.1172 27.7578 99.2031 28.7891 100.766 29.2969L101.75 27.7344C99.5391 27 98.5234 25.3281 98.4844 23.6719H101.312V22.0781H93.5938V23.6719H96.4531C96.4062 25.4531 95.3438 27.3125 93.0156 28.0938ZM95.3438 32.7188C95.3438 34.4453 97.2031 35.4531 100.234 35.4531C103.273 35.4531 105.133 34.4453 105.141 32.7188C105.133 30.9922 103.273 29.9766 100.234 29.9688C97.2031 29.9766 95.3438 30.9922 95.3438 32.7188ZM97.3281 32.7188C97.3281 31.8984 98.3516 31.4922 100.234 31.5C102.125 31.4922 103.148 31.8984 103.156 32.7188C103.148 33.5312 102.125 33.9375 100.234 33.9375C98.3516 33.9375 97.3281 33.5312 97.3281 32.7188Z" fill="#006981"/>
<path d="M119 33L124 28L119 23" stroke="#006981" stroke-linecap="round" stroke-linejoin="round"/>
<rect x="14.5" y="12.5" width="125" height="31" rx="15.5" stroke="#006981" shape-rendering="crispEdges"/>
</g>
<defs>
<filter id="filter0_d_331_7529" x="0" y="0" width="158" height="64" filterUnits="userSpaceOnUse" color-interpolation-filters="sRGB">
<feFlood flood-opacity="0" result="BackgroundImageFix"/>
<feColorMatrix in="SourceAlpha" type="matrix" values="0 0 0 0 0 0 0 0 0 0 0 0 0 0 0 0 0 0 127 0" result="hardAlpha"/>
<feOffset dx="2" dy="4"/>
<feGaussianBlur stdDeviation="8"/>
<feComposite in2="hardAlpha" operator="out"/>
<feColorMatrix type="matrix" values="0 0 0 0 0 0 0 0 0 0 0 0 0 0 0 0 0 0 0.04 0"/>
<feBlend mode="normal" in2="BackgroundImageFix" result="effect1_dropShadow_331_7529"/>
<feBlend mode="normal" in="SourceGraphic" in2="effect1_dropShadow_331_7529" result="shape"/>
</filter>
</defs>
</svg>
